%TF.GenerationSoftware,KiCad,Pcbnew,9.0.2-9.0.2-0~ubuntu24.04.1*%
%TF.CreationDate,2025-05-09T21:26:21+01:00*%
%TF.ProjectId,can-bus-kicad,63616e2d-6275-4732-9d6b-696361642e6b,rev?*%
%TF.SameCoordinates,Original*%
%TF.FileFunction,Drillmap*%
%TF.FilePolarity,Positive*%
%FSLAX45Y45*%
G04 Gerber Fmt 4.5, Leading zero omitted, Abs format (unit mm)*
G04 Created by KiCad (PCBNEW 9.0.2-9.0.2-0~ubuntu24.04.1) date 2025-05-09 21:26:21*
%MOMM*%
%LPD*%
G01*
G04 APERTURE LIST*
%ADD10C,0.038100*%
%ADD11C,0.200000*%
%ADD12C,0.100000*%
%ADD13C,0.120000*%
%ADD14C,0.350000*%
G04 APERTURE END LIST*
D10*
X9508000Y-6840000D02*
X14308000Y-6840000D01*
X14308000Y-11040000D01*
X9508000Y-11040000D01*
X9508000Y-6840000D01*
D11*
D12*
X11005000Y-8725000D02*
X11035000Y-8755000D01*
X11035000Y-8725000D02*
X11005000Y-8755000D01*
X11025000Y-8025000D02*
X11055000Y-8055000D01*
X11055000Y-8025000D02*
X11025000Y-8055000D01*
X11025000Y-8345000D02*
X11055000Y-8375000D01*
X11055000Y-8345000D02*
X11025000Y-8375000D01*
X11025000Y-9125000D02*
X11055000Y-9155000D01*
X11055000Y-9125000D02*
X11025000Y-9155000D01*
X11025000Y-9485000D02*
X11055000Y-9515000D01*
X11055000Y-9485000D02*
X11025000Y-9515000D01*
X11425000Y-8725000D02*
X11455000Y-8755000D01*
X11455000Y-8725000D02*
X11425000Y-8755000D01*
X11805000Y-9525000D02*
X11835000Y-9555000D01*
X11835000Y-9525000D02*
X11805000Y-9555000D01*
X12525000Y-9185000D02*
X12555000Y-9215000D01*
X12555000Y-9185000D02*
X12525000Y-9215000D01*
X12645000Y-8905000D02*
X12675000Y-8935000D01*
X12675000Y-8905000D02*
X12645000Y-8935000D01*
X12845000Y-7925000D02*
X12875000Y-7955000D01*
X12875000Y-7925000D02*
X12845000Y-7955000D01*
X12875000Y-8375000D02*
X12905000Y-8405000D01*
X12905000Y-8375000D02*
X12875000Y-8405000D01*
X13085000Y-9625000D02*
X13115000Y-9655000D01*
X13115000Y-9625000D02*
X13085000Y-9655000D01*
X13125000Y-7925000D02*
X13155000Y-7955000D01*
X13155000Y-7925000D02*
X13125000Y-7955000D01*
X13155000Y-8645000D02*
X13185000Y-8675000D01*
X13185000Y-8645000D02*
X13155000Y-8675000D01*
X13265000Y-9915000D02*
X13295000Y-9945000D01*
X13295000Y-9915000D02*
X13265000Y-9945000D01*
X13465000Y-7925000D02*
X13495000Y-7955000D01*
X13495000Y-7925000D02*
X13465000Y-7955000D01*
X13485000Y-9345000D02*
X13515000Y-9375000D01*
X13515000Y-9345000D02*
X13485000Y-9375000D01*
X13605000Y-9285000D02*
X13635000Y-9315000D01*
X13635000Y-9285000D02*
X13605000Y-9315000D01*
X13855000Y-9295000D02*
X13885000Y-9325000D01*
X13885000Y-9295000D02*
X13855000Y-9325000D01*
X14125000Y-8035000D02*
X14155000Y-8065000D01*
X14155000Y-8035000D02*
X14125000Y-8065000D01*
X14135000Y-9305000D02*
X14165000Y-9335000D01*
X14165000Y-9305000D02*
X14135000Y-9335000D01*
X9794000Y-10565000D02*
G75*
G02*
X9744000Y-10565000I-25000J0D01*
G01*
X9744000Y-10565000D02*
G75*
G02*
X9794000Y-10565000I25000J0D01*
G01*
X9870885Y-10379385D02*
G75*
G02*
X9820885Y-10379385I-25000J0D01*
G01*
X9820885Y-10379385D02*
G75*
G02*
X9870885Y-10379385I25000J0D01*
G01*
X9870885Y-10750616D02*
G75*
G02*
X9820885Y-10750616I-25000J0D01*
G01*
X9820885Y-10750616D02*
G75*
G02*
X9870885Y-10750616I25000J0D01*
G01*
X10056500Y-10302500D02*
G75*
G02*
X10006500Y-10302500I-25000J0D01*
G01*
X10006500Y-10302500D02*
G75*
G02*
X10056500Y-10302500I25000J0D01*
G01*
X10056500Y-10827500D02*
G75*
G02*
X10006500Y-10827500I-25000J0D01*
G01*
X10006500Y-10827500D02*
G75*
G02*
X10056500Y-10827500I25000J0D01*
G01*
X10242116Y-10379385D02*
G75*
G02*
X10192116Y-10379385I-25000J0D01*
G01*
X10192116Y-10379385D02*
G75*
G02*
X10242116Y-10379385I25000J0D01*
G01*
X10242116Y-10750616D02*
G75*
G02*
X10192116Y-10750616I-25000J0D01*
G01*
X10192116Y-10750616D02*
G75*
G02*
X10242116Y-10750616I25000J0D01*
G01*
X10319000Y-10565000D02*
G75*
G02*
X10269000Y-10565000I-25000J0D01*
G01*
X10269000Y-10565000D02*
G75*
G02*
X10319000Y-10565000I25000J0D01*
G01*
X13625500Y-7413500D02*
G75*
G02*
X13575500Y-7413500I-25000J0D01*
G01*
X13575500Y-7413500D02*
G75*
G02*
X13625500Y-7413500I25000J0D01*
G01*
X13702384Y-7227884D02*
G75*
G02*
X13652384Y-7227884I-25000J0D01*
G01*
X13652384Y-7227884D02*
G75*
G02*
X13702384Y-7227884I25000J0D01*
G01*
X13702384Y-7599115D02*
G75*
G02*
X13652384Y-7599115I-25000J0D01*
G01*
X13652384Y-7599115D02*
G75*
G02*
X13702384Y-7599115I25000J0D01*
G01*
X13888000Y-7151000D02*
G75*
G02*
X13838000Y-7151000I-25000J0D01*
G01*
X13838000Y-7151000D02*
G75*
G02*
X13888000Y-7151000I25000J0D01*
G01*
X13888000Y-7676000D02*
G75*
G02*
X13838000Y-7676000I-25000J0D01*
G01*
X13838000Y-7676000D02*
G75*
G02*
X13888000Y-7676000I25000J0D01*
G01*
X14073615Y-7227884D02*
G75*
G02*
X14023615Y-7227884I-25000J0D01*
G01*
X14023615Y-7227884D02*
G75*
G02*
X14073615Y-7227884I25000J0D01*
G01*
X14073615Y-7599115D02*
G75*
G02*
X14023615Y-7599115I-25000J0D01*
G01*
X14023615Y-7599115D02*
G75*
G02*
X14073615Y-7599115I25000J0D01*
G01*
X14150500Y-7413500D02*
G75*
G02*
X14100500Y-7413500I-25000J0D01*
G01*
X14100500Y-7413500D02*
G75*
G02*
X14150500Y-7413500I25000J0D01*
G01*
X10706000Y-7896000D02*
X10706000Y-7986000D01*
X10661000Y-7941000D02*
X10751000Y-7941000D01*
X10706000Y-8150000D02*
X10706000Y-8240000D01*
X10661000Y-8195000D02*
X10751000Y-8195000D01*
X10706000Y-8404000D02*
X10706000Y-8494000D01*
X10661000Y-8449000D02*
X10751000Y-8449000D01*
X10706000Y-8658000D02*
X10706000Y-8748000D01*
X10661000Y-8703000D02*
X10751000Y-8703000D01*
X10706000Y-8912000D02*
X10706000Y-9002000D01*
X10661000Y-8957000D02*
X10751000Y-8957000D01*
X10706000Y-9166000D02*
X10706000Y-9256000D01*
X10661000Y-9211000D02*
X10751000Y-9211000D01*
X10706000Y-9420000D02*
X10706000Y-9510000D01*
X10661000Y-9465000D02*
X10751000Y-9465000D01*
X10706000Y-9674000D02*
X10706000Y-9764000D01*
X10661000Y-9719000D02*
X10751000Y-9719000D01*
X12230000Y-7896000D02*
X12230000Y-7986000D01*
X12185000Y-7941000D02*
X12275000Y-7941000D01*
X12230000Y-8150000D02*
X12230000Y-8240000D01*
X12185000Y-8195000D02*
X12275000Y-8195000D01*
X12230000Y-8404000D02*
X12230000Y-8494000D01*
X12185000Y-8449000D02*
X12275000Y-8449000D01*
X12230000Y-8658000D02*
X12230000Y-8748000D01*
X12185000Y-8703000D02*
X12275000Y-8703000D01*
X12230000Y-8912000D02*
X12230000Y-9002000D01*
X12185000Y-8957000D02*
X12275000Y-8957000D01*
X12230000Y-9166000D02*
X12230000Y-9256000D01*
X12185000Y-9211000D02*
X12275000Y-9211000D01*
X12230000Y-9420000D02*
X12230000Y-9510000D01*
X12185000Y-9465000D02*
X12275000Y-9465000D01*
X12230000Y-9674000D02*
X12230000Y-9764000D01*
X12185000Y-9719000D02*
X12275000Y-9719000D01*
X10154588Y-8066588D02*
X10154588Y-7999412D01*
X10087412Y-7999412D01*
X10087412Y-8066588D01*
X10154588Y-8066588D01*
X10154588Y-8316588D02*
X10154588Y-8249412D01*
X10087412Y-8249412D01*
X10087412Y-8316588D01*
X10154588Y-8316588D01*
X10154588Y-8566588D02*
X10154588Y-8499412D01*
X10087412Y-8499412D01*
X10087412Y-8566588D01*
X10154588Y-8566588D01*
X10154588Y-8816588D02*
X10154588Y-8749412D01*
X10087412Y-8749412D01*
X10087412Y-8816588D01*
X10154588Y-8816588D01*
X10953588Y-10543588D02*
X10953588Y-10476412D01*
X10886412Y-10476412D01*
X10886412Y-10543588D01*
X10953588Y-10543588D01*
X11203588Y-10543588D02*
X11203588Y-10476412D01*
X11136412Y-10476412D01*
X11136412Y-10543588D01*
X11203588Y-10543588D01*
X11453588Y-10543588D02*
X11453588Y-10476412D01*
X11386412Y-10476412D01*
X11386412Y-10543588D01*
X11453588Y-10543588D01*
X11703588Y-10543588D02*
X11703588Y-10476412D01*
X11636412Y-10476412D01*
X11636412Y-10543588D01*
X11703588Y-10543588D01*
X10125000Y-9500000D02*
X10175000Y-9450000D01*
X10125000Y-9400000D01*
X10075000Y-9450000D01*
X10125000Y-9500000D01*
X10125000Y-9750000D02*
X10175000Y-9700000D01*
X10125000Y-9650000D01*
X10075000Y-9700000D01*
X10125000Y-9750000D01*
X10225000Y-7325000D02*
X10275000Y-7275000D01*
X10225000Y-7225000D01*
X10175000Y-7275000D01*
X10225000Y-7325000D01*
X10475000Y-7325000D02*
X10525000Y-7275000D01*
X10475000Y-7225000D01*
X10425000Y-7275000D01*
X10475000Y-7325000D01*
X12275000Y-7325000D02*
X12325000Y-7275000D01*
X12275000Y-7225000D01*
X12225000Y-7275000D01*
X12275000Y-7325000D01*
X12380000Y-10620000D02*
X12430000Y-10570000D01*
X12380000Y-10520000D01*
X12330000Y-10570000D01*
X12380000Y-10620000D01*
X12525000Y-7325000D02*
X12575000Y-7275000D01*
X12525000Y-7225000D01*
X12475000Y-7275000D01*
X12525000Y-7325000D01*
X12630000Y-10620000D02*
X12680000Y-10570000D01*
X12630000Y-10520000D01*
X12580000Y-10570000D01*
X12630000Y-10620000D01*
D13*
X13336000Y-10340000D02*
X13456000Y-10460000D01*
X13456000Y-10340000D02*
X13336000Y-10460000D01*
X13456000Y-10400000D02*
G75*
G02*
X13336000Y-10400000I-60000J0D01*
G01*
X13336000Y-10400000D02*
G75*
G02*
X13456000Y-10400000I60000J0D01*
G01*
X13590000Y-10340000D02*
X13710000Y-10460000D01*
X13710000Y-10340000D02*
X13590000Y-10460000D01*
X13710000Y-10400000D02*
G75*
G02*
X13590000Y-10400000I-60000J0D01*
G01*
X13590000Y-10400000D02*
G75*
G02*
X13710000Y-10400000I60000J0D01*
G01*
X13844000Y-10340000D02*
X13964000Y-10460000D01*
X13964000Y-10340000D02*
X13844000Y-10460000D01*
X13964000Y-10400000D02*
G75*
G02*
X13844000Y-10400000I-60000J0D01*
G01*
X13844000Y-10400000D02*
G75*
G02*
X13964000Y-10400000I60000J0D01*
G01*
D14*
X9856500Y-10390000D02*
X10206500Y-10740000D01*
X10206500Y-10390000D02*
X9856500Y-10740000D01*
X10031500Y-10390000D02*
X10031500Y-10740000D01*
X9856500Y-10565000D02*
X10206500Y-10565000D01*
X13688000Y-7238500D02*
X14038000Y-7588500D01*
X14038000Y-7238500D02*
X13688000Y-7588500D01*
X13863000Y-7238500D02*
X13863000Y-7588500D01*
X13688000Y-7413500D02*
X14038000Y-7413500D01*
D11*
X9766872Y-11353389D02*
X9766872Y-11153389D01*
X9766872Y-11153389D02*
X9814491Y-11153389D01*
X9814491Y-11153389D02*
X9843062Y-11162913D01*
X9843062Y-11162913D02*
X9862110Y-11181960D01*
X9862110Y-11181960D02*
X9871634Y-11201008D01*
X9871634Y-11201008D02*
X9881158Y-11239103D01*
X9881158Y-11239103D02*
X9881158Y-11267674D01*
X9881158Y-11267674D02*
X9871634Y-11305770D01*
X9871634Y-11305770D02*
X9862110Y-11324817D01*
X9862110Y-11324817D02*
X9843062Y-11343865D01*
X9843062Y-11343865D02*
X9814491Y-11353389D01*
X9814491Y-11353389D02*
X9766872Y-11353389D01*
X9966872Y-11353389D02*
X9966872Y-11220055D01*
X9966872Y-11258151D02*
X9976396Y-11239103D01*
X9976396Y-11239103D02*
X9985919Y-11229579D01*
X9985919Y-11229579D02*
X10004967Y-11220055D01*
X10004967Y-11220055D02*
X10024015Y-11220055D01*
X10090681Y-11353389D02*
X10090681Y-11220055D01*
X10090681Y-11153389D02*
X10081158Y-11162913D01*
X10081158Y-11162913D02*
X10090681Y-11172436D01*
X10090681Y-11172436D02*
X10100205Y-11162913D01*
X10100205Y-11162913D02*
X10090681Y-11153389D01*
X10090681Y-11153389D02*
X10090681Y-11172436D01*
X10214491Y-11353389D02*
X10195443Y-11343865D01*
X10195443Y-11343865D02*
X10185919Y-11324817D01*
X10185919Y-11324817D02*
X10185919Y-11153389D01*
X10319253Y-11353389D02*
X10300205Y-11343865D01*
X10300205Y-11343865D02*
X10290681Y-11324817D01*
X10290681Y-11324817D02*
X10290681Y-11153389D01*
X10547824Y-11353389D02*
X10547824Y-11153389D01*
X10547824Y-11153389D02*
X10614491Y-11296246D01*
X10614491Y-11296246D02*
X10681158Y-11153389D01*
X10681158Y-11153389D02*
X10681158Y-11353389D01*
X10862110Y-11353389D02*
X10862110Y-11248627D01*
X10862110Y-11248627D02*
X10852586Y-11229579D01*
X10852586Y-11229579D02*
X10833539Y-11220055D01*
X10833539Y-11220055D02*
X10795443Y-11220055D01*
X10795443Y-11220055D02*
X10776396Y-11229579D01*
X10862110Y-11343865D02*
X10843062Y-11353389D01*
X10843062Y-11353389D02*
X10795443Y-11353389D01*
X10795443Y-11353389D02*
X10776396Y-11343865D01*
X10776396Y-11343865D02*
X10766872Y-11324817D01*
X10766872Y-11324817D02*
X10766872Y-11305770D01*
X10766872Y-11305770D02*
X10776396Y-11286722D01*
X10776396Y-11286722D02*
X10795443Y-11277198D01*
X10795443Y-11277198D02*
X10843062Y-11277198D01*
X10843062Y-11277198D02*
X10862110Y-11267674D01*
X10957348Y-11220055D02*
X10957348Y-11420055D01*
X10957348Y-11229579D02*
X10976396Y-11220055D01*
X10976396Y-11220055D02*
X11014491Y-11220055D01*
X11014491Y-11220055D02*
X11033539Y-11229579D01*
X11033539Y-11229579D02*
X11043062Y-11239103D01*
X11043062Y-11239103D02*
X11052586Y-11258151D01*
X11052586Y-11258151D02*
X11052586Y-11315293D01*
X11052586Y-11315293D02*
X11043062Y-11334341D01*
X11043062Y-11334341D02*
X11033539Y-11343865D01*
X11033539Y-11343865D02*
X11014491Y-11353389D01*
X11014491Y-11353389D02*
X10976396Y-11353389D01*
X10976396Y-11353389D02*
X10957348Y-11343865D01*
X11138300Y-11334341D02*
X11147824Y-11343865D01*
X11147824Y-11343865D02*
X11138300Y-11353389D01*
X11138300Y-11353389D02*
X11128777Y-11343865D01*
X11128777Y-11343865D02*
X11138300Y-11334341D01*
X11138300Y-11334341D02*
X11138300Y-11353389D01*
X11138300Y-11229579D02*
X11147824Y-11239103D01*
X11147824Y-11239103D02*
X11138300Y-11248627D01*
X11138300Y-11248627D02*
X11128777Y-11239103D01*
X11128777Y-11239103D02*
X11138300Y-11229579D01*
X11138300Y-11229579D02*
X11138300Y-11248627D01*
D12*
X9476095Y-11666905D02*
X9506095Y-11696905D01*
X9506095Y-11666905D02*
X9476095Y-11696905D01*
D11*
X9804967Y-11573389D02*
X9824015Y-11573389D01*
X9824015Y-11573389D02*
X9843062Y-11582913D01*
X9843062Y-11582913D02*
X9852586Y-11592436D01*
X9852586Y-11592436D02*
X9862110Y-11611484D01*
X9862110Y-11611484D02*
X9871634Y-11649579D01*
X9871634Y-11649579D02*
X9871634Y-11697198D01*
X9871634Y-11697198D02*
X9862110Y-11735293D01*
X9862110Y-11735293D02*
X9852586Y-11754341D01*
X9852586Y-11754341D02*
X9843062Y-11763865D01*
X9843062Y-11763865D02*
X9824015Y-11773389D01*
X9824015Y-11773389D02*
X9804967Y-11773389D01*
X9804967Y-11773389D02*
X9785919Y-11763865D01*
X9785919Y-11763865D02*
X9776396Y-11754341D01*
X9776396Y-11754341D02*
X9766872Y-11735293D01*
X9766872Y-11735293D02*
X9757348Y-11697198D01*
X9757348Y-11697198D02*
X9757348Y-11649579D01*
X9757348Y-11649579D02*
X9766872Y-11611484D01*
X9766872Y-11611484D02*
X9776396Y-11592436D01*
X9776396Y-11592436D02*
X9785919Y-11582913D01*
X9785919Y-11582913D02*
X9804967Y-11573389D01*
X9957348Y-11754341D02*
X9966872Y-11763865D01*
X9966872Y-11763865D02*
X9957348Y-11773389D01*
X9957348Y-11773389D02*
X9947824Y-11763865D01*
X9947824Y-11763865D02*
X9957348Y-11754341D01*
X9957348Y-11754341D02*
X9957348Y-11773389D01*
X10033539Y-11573389D02*
X10157348Y-11573389D01*
X10157348Y-11573389D02*
X10090681Y-11649579D01*
X10090681Y-11649579D02*
X10119253Y-11649579D01*
X10119253Y-11649579D02*
X10138300Y-11659103D01*
X10138300Y-11659103D02*
X10147824Y-11668627D01*
X10147824Y-11668627D02*
X10157348Y-11687674D01*
X10157348Y-11687674D02*
X10157348Y-11735293D01*
X10157348Y-11735293D02*
X10147824Y-11754341D01*
X10147824Y-11754341D02*
X10138300Y-11763865D01*
X10138300Y-11763865D02*
X10119253Y-11773389D01*
X10119253Y-11773389D02*
X10062110Y-11773389D01*
X10062110Y-11773389D02*
X10043062Y-11763865D01*
X10043062Y-11763865D02*
X10033539Y-11754341D01*
X10281158Y-11573389D02*
X10300205Y-11573389D01*
X10300205Y-11573389D02*
X10319253Y-11582913D01*
X10319253Y-11582913D02*
X10328777Y-11592436D01*
X10328777Y-11592436D02*
X10338300Y-11611484D01*
X10338300Y-11611484D02*
X10347824Y-11649579D01*
X10347824Y-11649579D02*
X10347824Y-11697198D01*
X10347824Y-11697198D02*
X10338300Y-11735293D01*
X10338300Y-11735293D02*
X10328777Y-11754341D01*
X10328777Y-11754341D02*
X10319253Y-11763865D01*
X10319253Y-11763865D02*
X10300205Y-11773389D01*
X10300205Y-11773389D02*
X10281158Y-11773389D01*
X10281158Y-11773389D02*
X10262110Y-11763865D01*
X10262110Y-11763865D02*
X10252586Y-11754341D01*
X10252586Y-11754341D02*
X10243062Y-11735293D01*
X10243062Y-11735293D02*
X10233539Y-11697198D01*
X10233539Y-11697198D02*
X10233539Y-11649579D01*
X10233539Y-11649579D02*
X10243062Y-11611484D01*
X10243062Y-11611484D02*
X10252586Y-11592436D01*
X10252586Y-11592436D02*
X10262110Y-11582913D01*
X10262110Y-11582913D02*
X10281158Y-11573389D01*
X10471634Y-11573389D02*
X10490681Y-11573389D01*
X10490681Y-11573389D02*
X10509729Y-11582913D01*
X10509729Y-11582913D02*
X10519253Y-11592436D01*
X10519253Y-11592436D02*
X10528777Y-11611484D01*
X10528777Y-11611484D02*
X10538300Y-11649579D01*
X10538300Y-11649579D02*
X10538300Y-11697198D01*
X10538300Y-11697198D02*
X10528777Y-11735293D01*
X10528777Y-11735293D02*
X10519253Y-11754341D01*
X10519253Y-11754341D02*
X10509729Y-11763865D01*
X10509729Y-11763865D02*
X10490681Y-11773389D01*
X10490681Y-11773389D02*
X10471634Y-11773389D01*
X10471634Y-11773389D02*
X10452586Y-11763865D01*
X10452586Y-11763865D02*
X10443062Y-11754341D01*
X10443062Y-11754341D02*
X10433539Y-11735293D01*
X10433539Y-11735293D02*
X10424015Y-11697198D01*
X10424015Y-11697198D02*
X10424015Y-11649579D01*
X10424015Y-11649579D02*
X10433539Y-11611484D01*
X10433539Y-11611484D02*
X10443062Y-11592436D01*
X10443062Y-11592436D02*
X10452586Y-11582913D01*
X10452586Y-11582913D02*
X10471634Y-11573389D01*
X10624015Y-11773389D02*
X10624015Y-11640055D01*
X10624015Y-11659103D02*
X10633539Y-11649579D01*
X10633539Y-11649579D02*
X10652586Y-11640055D01*
X10652586Y-11640055D02*
X10681158Y-11640055D01*
X10681158Y-11640055D02*
X10700205Y-11649579D01*
X10700205Y-11649579D02*
X10709729Y-11668627D01*
X10709729Y-11668627D02*
X10709729Y-11773389D01*
X10709729Y-11668627D02*
X10719253Y-11649579D01*
X10719253Y-11649579D02*
X10738300Y-11640055D01*
X10738300Y-11640055D02*
X10766872Y-11640055D01*
X10766872Y-11640055D02*
X10785920Y-11649579D01*
X10785920Y-11649579D02*
X10795443Y-11668627D01*
X10795443Y-11668627D02*
X10795443Y-11773389D01*
X10890681Y-11773389D02*
X10890681Y-11640055D01*
X10890681Y-11659103D02*
X10900205Y-11649579D01*
X10900205Y-11649579D02*
X10919253Y-11640055D01*
X10919253Y-11640055D02*
X10947824Y-11640055D01*
X10947824Y-11640055D02*
X10966872Y-11649579D01*
X10966872Y-11649579D02*
X10976396Y-11668627D01*
X10976396Y-11668627D02*
X10976396Y-11773389D01*
X10976396Y-11668627D02*
X10985920Y-11649579D01*
X10985920Y-11649579D02*
X11004967Y-11640055D01*
X11004967Y-11640055D02*
X11033539Y-11640055D01*
X11033539Y-11640055D02*
X11052586Y-11649579D01*
X11052586Y-11649579D02*
X11062110Y-11668627D01*
X11062110Y-11668627D02*
X11062110Y-11773389D01*
X11452586Y-11563865D02*
X11281158Y-11821008D01*
X11709729Y-11573389D02*
X11728777Y-11573389D01*
X11728777Y-11573389D02*
X11747824Y-11582913D01*
X11747824Y-11582913D02*
X11757348Y-11592436D01*
X11757348Y-11592436D02*
X11766872Y-11611484D01*
X11766872Y-11611484D02*
X11776396Y-11649579D01*
X11776396Y-11649579D02*
X11776396Y-11697198D01*
X11776396Y-11697198D02*
X11766872Y-11735293D01*
X11766872Y-11735293D02*
X11757348Y-11754341D01*
X11757348Y-11754341D02*
X11747824Y-11763865D01*
X11747824Y-11763865D02*
X11728777Y-11773389D01*
X11728777Y-11773389D02*
X11709729Y-11773389D01*
X11709729Y-11773389D02*
X11690681Y-11763865D01*
X11690681Y-11763865D02*
X11681158Y-11754341D01*
X11681158Y-11754341D02*
X11671634Y-11735293D01*
X11671634Y-11735293D02*
X11662110Y-11697198D01*
X11662110Y-11697198D02*
X11662110Y-11649579D01*
X11662110Y-11649579D02*
X11671634Y-11611484D01*
X11671634Y-11611484D02*
X11681158Y-11592436D01*
X11681158Y-11592436D02*
X11690681Y-11582913D01*
X11690681Y-11582913D02*
X11709729Y-11573389D01*
X11862110Y-11754341D02*
X11871634Y-11763865D01*
X11871634Y-11763865D02*
X11862110Y-11773389D01*
X11862110Y-11773389D02*
X11852586Y-11763865D01*
X11852586Y-11763865D02*
X11862110Y-11754341D01*
X11862110Y-11754341D02*
X11862110Y-11773389D01*
X11995443Y-11573389D02*
X12014491Y-11573389D01*
X12014491Y-11573389D02*
X12033539Y-11582913D01*
X12033539Y-11582913D02*
X12043062Y-11592436D01*
X12043062Y-11592436D02*
X12052586Y-11611484D01*
X12052586Y-11611484D02*
X12062110Y-11649579D01*
X12062110Y-11649579D02*
X12062110Y-11697198D01*
X12062110Y-11697198D02*
X12052586Y-11735293D01*
X12052586Y-11735293D02*
X12043062Y-11754341D01*
X12043062Y-11754341D02*
X12033539Y-11763865D01*
X12033539Y-11763865D02*
X12014491Y-11773389D01*
X12014491Y-11773389D02*
X11995443Y-11773389D01*
X11995443Y-11773389D02*
X11976396Y-11763865D01*
X11976396Y-11763865D02*
X11966872Y-11754341D01*
X11966872Y-11754341D02*
X11957348Y-11735293D01*
X11957348Y-11735293D02*
X11947824Y-11697198D01*
X11947824Y-11697198D02*
X11947824Y-11649579D01*
X11947824Y-11649579D02*
X11957348Y-11611484D01*
X11957348Y-11611484D02*
X11966872Y-11592436D01*
X11966872Y-11592436D02*
X11976396Y-11582913D01*
X11976396Y-11582913D02*
X11995443Y-11573389D01*
X12252586Y-11773389D02*
X12138301Y-11773389D01*
X12195443Y-11773389D02*
X12195443Y-11573389D01*
X12195443Y-11573389D02*
X12176396Y-11601960D01*
X12176396Y-11601960D02*
X12157348Y-11621008D01*
X12157348Y-11621008D02*
X12138301Y-11630532D01*
X12443062Y-11773389D02*
X12328777Y-11773389D01*
X12385920Y-11773389D02*
X12385920Y-11573389D01*
X12385920Y-11573389D02*
X12366872Y-11601960D01*
X12366872Y-11601960D02*
X12347824Y-11621008D01*
X12347824Y-11621008D02*
X12328777Y-11630532D01*
X12557348Y-11659103D02*
X12538301Y-11649579D01*
X12538301Y-11649579D02*
X12528777Y-11640055D01*
X12528777Y-11640055D02*
X12519253Y-11621008D01*
X12519253Y-11621008D02*
X12519253Y-11611484D01*
X12519253Y-11611484D02*
X12528777Y-11592436D01*
X12528777Y-11592436D02*
X12538301Y-11582913D01*
X12538301Y-11582913D02*
X12557348Y-11573389D01*
X12557348Y-11573389D02*
X12595443Y-11573389D01*
X12595443Y-11573389D02*
X12614491Y-11582913D01*
X12614491Y-11582913D02*
X12624015Y-11592436D01*
X12624015Y-11592436D02*
X12633539Y-11611484D01*
X12633539Y-11611484D02*
X12633539Y-11621008D01*
X12633539Y-11621008D02*
X12624015Y-11640055D01*
X12624015Y-11640055D02*
X12614491Y-11649579D01*
X12614491Y-11649579D02*
X12595443Y-11659103D01*
X12595443Y-11659103D02*
X12557348Y-11659103D01*
X12557348Y-11659103D02*
X12538301Y-11668627D01*
X12538301Y-11668627D02*
X12528777Y-11678151D01*
X12528777Y-11678151D02*
X12519253Y-11697198D01*
X12519253Y-11697198D02*
X12519253Y-11735293D01*
X12519253Y-11735293D02*
X12528777Y-11754341D01*
X12528777Y-11754341D02*
X12538301Y-11763865D01*
X12538301Y-11763865D02*
X12557348Y-11773389D01*
X12557348Y-11773389D02*
X12595443Y-11773389D01*
X12595443Y-11773389D02*
X12614491Y-11763865D01*
X12614491Y-11763865D02*
X12624015Y-11754341D01*
X12624015Y-11754341D02*
X12633539Y-11735293D01*
X12633539Y-11735293D02*
X12633539Y-11697198D01*
X12633539Y-11697198D02*
X12624015Y-11678151D01*
X12624015Y-11678151D02*
X12614491Y-11668627D01*
X12614491Y-11668627D02*
X12595443Y-11659103D01*
X12709729Y-11573389D02*
X12709729Y-11611484D01*
X12785920Y-11573389D02*
X12785920Y-11611484D01*
X13081158Y-11849579D02*
X13071634Y-11840055D01*
X13071634Y-11840055D02*
X13052586Y-11811484D01*
X13052586Y-11811484D02*
X13043063Y-11792436D01*
X13043063Y-11792436D02*
X13033539Y-11763865D01*
X13033539Y-11763865D02*
X13024015Y-11716246D01*
X13024015Y-11716246D02*
X13024015Y-11678151D01*
X13024015Y-11678151D02*
X13033539Y-11630532D01*
X13033539Y-11630532D02*
X13043063Y-11601960D01*
X13043063Y-11601960D02*
X13052586Y-11582913D01*
X13052586Y-11582913D02*
X13071634Y-11554341D01*
X13071634Y-11554341D02*
X13081158Y-11544817D01*
X13147824Y-11592436D02*
X13157348Y-11582913D01*
X13157348Y-11582913D02*
X13176396Y-11573389D01*
X13176396Y-11573389D02*
X13224015Y-11573389D01*
X13224015Y-11573389D02*
X13243063Y-11582913D01*
X13243063Y-11582913D02*
X13252586Y-11592436D01*
X13252586Y-11592436D02*
X13262110Y-11611484D01*
X13262110Y-11611484D02*
X13262110Y-11630532D01*
X13262110Y-11630532D02*
X13252586Y-11659103D01*
X13252586Y-11659103D02*
X13138301Y-11773389D01*
X13138301Y-11773389D02*
X13262110Y-11773389D01*
X13452586Y-11773389D02*
X13338301Y-11773389D01*
X13395443Y-11773389D02*
X13395443Y-11573389D01*
X13395443Y-11573389D02*
X13376396Y-11601960D01*
X13376396Y-11601960D02*
X13357348Y-11621008D01*
X13357348Y-11621008D02*
X13338301Y-11630532D01*
X13690682Y-11773389D02*
X13690682Y-11573389D01*
X13776396Y-11773389D02*
X13776396Y-11668627D01*
X13776396Y-11668627D02*
X13766872Y-11649579D01*
X13766872Y-11649579D02*
X13747825Y-11640055D01*
X13747825Y-11640055D02*
X13719253Y-11640055D01*
X13719253Y-11640055D02*
X13700205Y-11649579D01*
X13700205Y-11649579D02*
X13690682Y-11659103D01*
X13900205Y-11773389D02*
X13881158Y-11763865D01*
X13881158Y-11763865D02*
X13871634Y-11754341D01*
X13871634Y-11754341D02*
X13862110Y-11735293D01*
X13862110Y-11735293D02*
X13862110Y-11678151D01*
X13862110Y-11678151D02*
X13871634Y-11659103D01*
X13871634Y-11659103D02*
X13881158Y-11649579D01*
X13881158Y-11649579D02*
X13900205Y-11640055D01*
X13900205Y-11640055D02*
X13928777Y-11640055D01*
X13928777Y-11640055D02*
X13947825Y-11649579D01*
X13947825Y-11649579D02*
X13957348Y-11659103D01*
X13957348Y-11659103D02*
X13966872Y-11678151D01*
X13966872Y-11678151D02*
X13966872Y-11735293D01*
X13966872Y-11735293D02*
X13957348Y-11754341D01*
X13957348Y-11754341D02*
X13947825Y-11763865D01*
X13947825Y-11763865D02*
X13928777Y-11773389D01*
X13928777Y-11773389D02*
X13900205Y-11773389D01*
X14081158Y-11773389D02*
X14062110Y-11763865D01*
X14062110Y-11763865D02*
X14052586Y-11744817D01*
X14052586Y-11744817D02*
X14052586Y-11573389D01*
X14233539Y-11763865D02*
X14214491Y-11773389D01*
X14214491Y-11773389D02*
X14176396Y-11773389D01*
X14176396Y-11773389D02*
X14157348Y-11763865D01*
X14157348Y-11763865D02*
X14147825Y-11744817D01*
X14147825Y-11744817D02*
X14147825Y-11668627D01*
X14147825Y-11668627D02*
X14157348Y-11649579D01*
X14157348Y-11649579D02*
X14176396Y-11640055D01*
X14176396Y-11640055D02*
X14214491Y-11640055D01*
X14214491Y-11640055D02*
X14233539Y-11649579D01*
X14233539Y-11649579D02*
X14243063Y-11668627D01*
X14243063Y-11668627D02*
X14243063Y-11687674D01*
X14243063Y-11687674D02*
X14147825Y-11706722D01*
X14319253Y-11763865D02*
X14338301Y-11773389D01*
X14338301Y-11773389D02*
X14376396Y-11773389D01*
X14376396Y-11773389D02*
X14395444Y-11763865D01*
X14395444Y-11763865D02*
X14404967Y-11744817D01*
X14404967Y-11744817D02*
X14404967Y-11735293D01*
X14404967Y-11735293D02*
X14395444Y-11716246D01*
X14395444Y-11716246D02*
X14376396Y-11706722D01*
X14376396Y-11706722D02*
X14347825Y-11706722D01*
X14347825Y-11706722D02*
X14328777Y-11697198D01*
X14328777Y-11697198D02*
X14319253Y-11678151D01*
X14319253Y-11678151D02*
X14319253Y-11668627D01*
X14319253Y-11668627D02*
X14328777Y-11649579D01*
X14328777Y-11649579D02*
X14347825Y-11640055D01*
X14347825Y-11640055D02*
X14376396Y-11640055D01*
X14376396Y-11640055D02*
X14395444Y-11649579D01*
X14471634Y-11849579D02*
X14481158Y-11840055D01*
X14481158Y-11840055D02*
X14500206Y-11811484D01*
X14500206Y-11811484D02*
X14509729Y-11792436D01*
X14509729Y-11792436D02*
X14519253Y-11763865D01*
X14519253Y-11763865D02*
X14528777Y-11716246D01*
X14528777Y-11716246D02*
X14528777Y-11678151D01*
X14528777Y-11678151D02*
X14519253Y-11630532D01*
X14519253Y-11630532D02*
X14509729Y-11601960D01*
X14509729Y-11601960D02*
X14500206Y-11582913D01*
X14500206Y-11582913D02*
X14481158Y-11554341D01*
X14481158Y-11554341D02*
X14471634Y-11544817D01*
D12*
X9506095Y-11945905D02*
G75*
G02*
X9456095Y-11945905I-25000J0D01*
G01*
X9456095Y-11945905D02*
G75*
G02*
X9506095Y-11945905I25000J0D01*
G01*
D11*
X9804967Y-11837389D02*
X9824015Y-11837389D01*
X9824015Y-11837389D02*
X9843062Y-11846913D01*
X9843062Y-11846913D02*
X9852586Y-11856436D01*
X9852586Y-11856436D02*
X9862110Y-11875484D01*
X9862110Y-11875484D02*
X9871634Y-11913579D01*
X9871634Y-11913579D02*
X9871634Y-11961198D01*
X9871634Y-11961198D02*
X9862110Y-11999293D01*
X9862110Y-11999293D02*
X9852586Y-12018341D01*
X9852586Y-12018341D02*
X9843062Y-12027865D01*
X9843062Y-12027865D02*
X9824015Y-12037389D01*
X9824015Y-12037389D02*
X9804967Y-12037389D01*
X9804967Y-12037389D02*
X9785919Y-12027865D01*
X9785919Y-12027865D02*
X9776396Y-12018341D01*
X9776396Y-12018341D02*
X9766872Y-11999293D01*
X9766872Y-11999293D02*
X9757348Y-11961198D01*
X9757348Y-11961198D02*
X9757348Y-11913579D01*
X9757348Y-11913579D02*
X9766872Y-11875484D01*
X9766872Y-11875484D02*
X9776396Y-11856436D01*
X9776396Y-11856436D02*
X9785919Y-11846913D01*
X9785919Y-11846913D02*
X9804967Y-11837389D01*
X9957348Y-12018341D02*
X9966872Y-12027865D01*
X9966872Y-12027865D02*
X9957348Y-12037389D01*
X9957348Y-12037389D02*
X9947824Y-12027865D01*
X9947824Y-12027865D02*
X9957348Y-12018341D01*
X9957348Y-12018341D02*
X9957348Y-12037389D01*
X10147824Y-11837389D02*
X10052586Y-11837389D01*
X10052586Y-11837389D02*
X10043062Y-11932627D01*
X10043062Y-11932627D02*
X10052586Y-11923103D01*
X10052586Y-11923103D02*
X10071634Y-11913579D01*
X10071634Y-11913579D02*
X10119253Y-11913579D01*
X10119253Y-11913579D02*
X10138300Y-11923103D01*
X10138300Y-11923103D02*
X10147824Y-11932627D01*
X10147824Y-11932627D02*
X10157348Y-11951674D01*
X10157348Y-11951674D02*
X10157348Y-11999293D01*
X10157348Y-11999293D02*
X10147824Y-12018341D01*
X10147824Y-12018341D02*
X10138300Y-12027865D01*
X10138300Y-12027865D02*
X10119253Y-12037389D01*
X10119253Y-12037389D02*
X10071634Y-12037389D01*
X10071634Y-12037389D02*
X10052586Y-12027865D01*
X10052586Y-12027865D02*
X10043062Y-12018341D01*
X10281158Y-11837389D02*
X10300205Y-11837389D01*
X10300205Y-11837389D02*
X10319253Y-11846913D01*
X10319253Y-11846913D02*
X10328777Y-11856436D01*
X10328777Y-11856436D02*
X10338300Y-11875484D01*
X10338300Y-11875484D02*
X10347824Y-11913579D01*
X10347824Y-11913579D02*
X10347824Y-11961198D01*
X10347824Y-11961198D02*
X10338300Y-11999293D01*
X10338300Y-11999293D02*
X10328777Y-12018341D01*
X10328777Y-12018341D02*
X10319253Y-12027865D01*
X10319253Y-12027865D02*
X10300205Y-12037389D01*
X10300205Y-12037389D02*
X10281158Y-12037389D01*
X10281158Y-12037389D02*
X10262110Y-12027865D01*
X10262110Y-12027865D02*
X10252586Y-12018341D01*
X10252586Y-12018341D02*
X10243062Y-11999293D01*
X10243062Y-11999293D02*
X10233539Y-11961198D01*
X10233539Y-11961198D02*
X10233539Y-11913579D01*
X10233539Y-11913579D02*
X10243062Y-11875484D01*
X10243062Y-11875484D02*
X10252586Y-11856436D01*
X10252586Y-11856436D02*
X10262110Y-11846913D01*
X10262110Y-11846913D02*
X10281158Y-11837389D01*
X10471634Y-11837389D02*
X10490681Y-11837389D01*
X10490681Y-11837389D02*
X10509729Y-11846913D01*
X10509729Y-11846913D02*
X10519253Y-11856436D01*
X10519253Y-11856436D02*
X10528777Y-11875484D01*
X10528777Y-11875484D02*
X10538300Y-11913579D01*
X10538300Y-11913579D02*
X10538300Y-11961198D01*
X10538300Y-11961198D02*
X10528777Y-11999293D01*
X10528777Y-11999293D02*
X10519253Y-12018341D01*
X10519253Y-12018341D02*
X10509729Y-12027865D01*
X10509729Y-12027865D02*
X10490681Y-12037389D01*
X10490681Y-12037389D02*
X10471634Y-12037389D01*
X10471634Y-12037389D02*
X10452586Y-12027865D01*
X10452586Y-12027865D02*
X10443062Y-12018341D01*
X10443062Y-12018341D02*
X10433539Y-11999293D01*
X10433539Y-11999293D02*
X10424015Y-11961198D01*
X10424015Y-11961198D02*
X10424015Y-11913579D01*
X10424015Y-11913579D02*
X10433539Y-11875484D01*
X10433539Y-11875484D02*
X10443062Y-11856436D01*
X10443062Y-11856436D02*
X10452586Y-11846913D01*
X10452586Y-11846913D02*
X10471634Y-11837389D01*
X10624015Y-12037389D02*
X10624015Y-11904055D01*
X10624015Y-11923103D02*
X10633539Y-11913579D01*
X10633539Y-11913579D02*
X10652586Y-11904055D01*
X10652586Y-11904055D02*
X10681158Y-11904055D01*
X10681158Y-11904055D02*
X10700205Y-11913579D01*
X10700205Y-11913579D02*
X10709729Y-11932627D01*
X10709729Y-11932627D02*
X10709729Y-12037389D01*
X10709729Y-11932627D02*
X10719253Y-11913579D01*
X10719253Y-11913579D02*
X10738300Y-11904055D01*
X10738300Y-11904055D02*
X10766872Y-11904055D01*
X10766872Y-11904055D02*
X10785920Y-11913579D01*
X10785920Y-11913579D02*
X10795443Y-11932627D01*
X10795443Y-11932627D02*
X10795443Y-12037389D01*
X10890681Y-12037389D02*
X10890681Y-11904055D01*
X10890681Y-11923103D02*
X10900205Y-11913579D01*
X10900205Y-11913579D02*
X10919253Y-11904055D01*
X10919253Y-11904055D02*
X10947824Y-11904055D01*
X10947824Y-11904055D02*
X10966872Y-11913579D01*
X10966872Y-11913579D02*
X10976396Y-11932627D01*
X10976396Y-11932627D02*
X10976396Y-12037389D01*
X10976396Y-11932627D02*
X10985920Y-11913579D01*
X10985920Y-11913579D02*
X11004967Y-11904055D01*
X11004967Y-11904055D02*
X11033539Y-11904055D01*
X11033539Y-11904055D02*
X11052586Y-11913579D01*
X11052586Y-11913579D02*
X11062110Y-11932627D01*
X11062110Y-11932627D02*
X11062110Y-12037389D01*
X11452586Y-11827865D02*
X11281158Y-12085008D01*
X11709729Y-11837389D02*
X11728777Y-11837389D01*
X11728777Y-11837389D02*
X11747824Y-11846913D01*
X11747824Y-11846913D02*
X11757348Y-11856436D01*
X11757348Y-11856436D02*
X11766872Y-11875484D01*
X11766872Y-11875484D02*
X11776396Y-11913579D01*
X11776396Y-11913579D02*
X11776396Y-11961198D01*
X11776396Y-11961198D02*
X11766872Y-11999293D01*
X11766872Y-11999293D02*
X11757348Y-12018341D01*
X11757348Y-12018341D02*
X11747824Y-12027865D01*
X11747824Y-12027865D02*
X11728777Y-12037389D01*
X11728777Y-12037389D02*
X11709729Y-12037389D01*
X11709729Y-12037389D02*
X11690681Y-12027865D01*
X11690681Y-12027865D02*
X11681158Y-12018341D01*
X11681158Y-12018341D02*
X11671634Y-11999293D01*
X11671634Y-11999293D02*
X11662110Y-11961198D01*
X11662110Y-11961198D02*
X11662110Y-11913579D01*
X11662110Y-11913579D02*
X11671634Y-11875484D01*
X11671634Y-11875484D02*
X11681158Y-11856436D01*
X11681158Y-11856436D02*
X11690681Y-11846913D01*
X11690681Y-11846913D02*
X11709729Y-11837389D01*
X11862110Y-12018341D02*
X11871634Y-12027865D01*
X11871634Y-12027865D02*
X11862110Y-12037389D01*
X11862110Y-12037389D02*
X11852586Y-12027865D01*
X11852586Y-12027865D02*
X11862110Y-12018341D01*
X11862110Y-12018341D02*
X11862110Y-12037389D01*
X11995443Y-11837389D02*
X12014491Y-11837389D01*
X12014491Y-11837389D02*
X12033539Y-11846913D01*
X12033539Y-11846913D02*
X12043062Y-11856436D01*
X12043062Y-11856436D02*
X12052586Y-11875484D01*
X12052586Y-11875484D02*
X12062110Y-11913579D01*
X12062110Y-11913579D02*
X12062110Y-11961198D01*
X12062110Y-11961198D02*
X12052586Y-11999293D01*
X12052586Y-11999293D02*
X12043062Y-12018341D01*
X12043062Y-12018341D02*
X12033539Y-12027865D01*
X12033539Y-12027865D02*
X12014491Y-12037389D01*
X12014491Y-12037389D02*
X11995443Y-12037389D01*
X11995443Y-12037389D02*
X11976396Y-12027865D01*
X11976396Y-12027865D02*
X11966872Y-12018341D01*
X11966872Y-12018341D02*
X11957348Y-11999293D01*
X11957348Y-11999293D02*
X11947824Y-11961198D01*
X11947824Y-11961198D02*
X11947824Y-11913579D01*
X11947824Y-11913579D02*
X11957348Y-11875484D01*
X11957348Y-11875484D02*
X11966872Y-11856436D01*
X11966872Y-11856436D02*
X11976396Y-11846913D01*
X11976396Y-11846913D02*
X11995443Y-11837389D01*
X12252586Y-12037389D02*
X12138301Y-12037389D01*
X12195443Y-12037389D02*
X12195443Y-11837389D01*
X12195443Y-11837389D02*
X12176396Y-11865960D01*
X12176396Y-11865960D02*
X12157348Y-11885008D01*
X12157348Y-11885008D02*
X12138301Y-11894532D01*
X12347824Y-12037389D02*
X12385920Y-12037389D01*
X12385920Y-12037389D02*
X12404967Y-12027865D01*
X12404967Y-12027865D02*
X12414491Y-12018341D01*
X12414491Y-12018341D02*
X12433539Y-11989770D01*
X12433539Y-11989770D02*
X12443062Y-11951674D01*
X12443062Y-11951674D02*
X12443062Y-11875484D01*
X12443062Y-11875484D02*
X12433539Y-11856436D01*
X12433539Y-11856436D02*
X12424015Y-11846913D01*
X12424015Y-11846913D02*
X12404967Y-11837389D01*
X12404967Y-11837389D02*
X12366872Y-11837389D01*
X12366872Y-11837389D02*
X12347824Y-11846913D01*
X12347824Y-11846913D02*
X12338301Y-11856436D01*
X12338301Y-11856436D02*
X12328777Y-11875484D01*
X12328777Y-11875484D02*
X12328777Y-11923103D01*
X12328777Y-11923103D02*
X12338301Y-11942151D01*
X12338301Y-11942151D02*
X12347824Y-11951674D01*
X12347824Y-11951674D02*
X12366872Y-11961198D01*
X12366872Y-11961198D02*
X12404967Y-11961198D01*
X12404967Y-11961198D02*
X12424015Y-11951674D01*
X12424015Y-11951674D02*
X12433539Y-11942151D01*
X12433539Y-11942151D02*
X12443062Y-11923103D01*
X12509729Y-11837389D02*
X12643062Y-11837389D01*
X12643062Y-11837389D02*
X12557348Y-12037389D01*
X12709729Y-11837389D02*
X12709729Y-11875484D01*
X12785920Y-11837389D02*
X12785920Y-11875484D01*
X13081158Y-12113579D02*
X13071634Y-12104055D01*
X13071634Y-12104055D02*
X13052586Y-12075484D01*
X13052586Y-12075484D02*
X13043063Y-12056436D01*
X13043063Y-12056436D02*
X13033539Y-12027865D01*
X13033539Y-12027865D02*
X13024015Y-11980246D01*
X13024015Y-11980246D02*
X13024015Y-11942151D01*
X13024015Y-11942151D02*
X13033539Y-11894532D01*
X13033539Y-11894532D02*
X13043063Y-11865960D01*
X13043063Y-11865960D02*
X13052586Y-11846913D01*
X13052586Y-11846913D02*
X13071634Y-11818341D01*
X13071634Y-11818341D02*
X13081158Y-11808817D01*
X13262110Y-12037389D02*
X13147824Y-12037389D01*
X13204967Y-12037389D02*
X13204967Y-11837389D01*
X13204967Y-11837389D02*
X13185920Y-11865960D01*
X13185920Y-11865960D02*
X13166872Y-11885008D01*
X13166872Y-11885008D02*
X13147824Y-11894532D01*
X13433539Y-11837389D02*
X13395443Y-11837389D01*
X13395443Y-11837389D02*
X13376396Y-11846913D01*
X13376396Y-11846913D02*
X13366872Y-11856436D01*
X13366872Y-11856436D02*
X13347824Y-11885008D01*
X13347824Y-11885008D02*
X13338301Y-11923103D01*
X13338301Y-11923103D02*
X13338301Y-11999293D01*
X13338301Y-11999293D02*
X13347824Y-12018341D01*
X13347824Y-12018341D02*
X13357348Y-12027865D01*
X13357348Y-12027865D02*
X13376396Y-12037389D01*
X13376396Y-12037389D02*
X13414491Y-12037389D01*
X13414491Y-12037389D02*
X13433539Y-12027865D01*
X13433539Y-12027865D02*
X13443063Y-12018341D01*
X13443063Y-12018341D02*
X13452586Y-11999293D01*
X13452586Y-11999293D02*
X13452586Y-11951674D01*
X13452586Y-11951674D02*
X13443063Y-11932627D01*
X13443063Y-11932627D02*
X13433539Y-11923103D01*
X13433539Y-11923103D02*
X13414491Y-11913579D01*
X13414491Y-11913579D02*
X13376396Y-11913579D01*
X13376396Y-11913579D02*
X13357348Y-11923103D01*
X13357348Y-11923103D02*
X13347824Y-11932627D01*
X13347824Y-11932627D02*
X13338301Y-11951674D01*
X13690682Y-12037389D02*
X13690682Y-11837389D01*
X13776396Y-12037389D02*
X13776396Y-11932627D01*
X13776396Y-11932627D02*
X13766872Y-11913579D01*
X13766872Y-11913579D02*
X13747825Y-11904055D01*
X13747825Y-11904055D02*
X13719253Y-11904055D01*
X13719253Y-11904055D02*
X13700205Y-11913579D01*
X13700205Y-11913579D02*
X13690682Y-11923103D01*
X13900205Y-12037389D02*
X13881158Y-12027865D01*
X13881158Y-12027865D02*
X13871634Y-12018341D01*
X13871634Y-12018341D02*
X13862110Y-11999293D01*
X13862110Y-11999293D02*
X13862110Y-11942151D01*
X13862110Y-11942151D02*
X13871634Y-11923103D01*
X13871634Y-11923103D02*
X13881158Y-11913579D01*
X13881158Y-11913579D02*
X13900205Y-11904055D01*
X13900205Y-11904055D02*
X13928777Y-11904055D01*
X13928777Y-11904055D02*
X13947825Y-11913579D01*
X13947825Y-11913579D02*
X13957348Y-11923103D01*
X13957348Y-11923103D02*
X13966872Y-11942151D01*
X13966872Y-11942151D02*
X13966872Y-11999293D01*
X13966872Y-11999293D02*
X13957348Y-12018341D01*
X13957348Y-12018341D02*
X13947825Y-12027865D01*
X13947825Y-12027865D02*
X13928777Y-12037389D01*
X13928777Y-12037389D02*
X13900205Y-12037389D01*
X14081158Y-12037389D02*
X14062110Y-12027865D01*
X14062110Y-12027865D02*
X14052586Y-12008817D01*
X14052586Y-12008817D02*
X14052586Y-11837389D01*
X14233539Y-12027865D02*
X14214491Y-12037389D01*
X14214491Y-12037389D02*
X14176396Y-12037389D01*
X14176396Y-12037389D02*
X14157348Y-12027865D01*
X14157348Y-12027865D02*
X14147825Y-12008817D01*
X14147825Y-12008817D02*
X14147825Y-11932627D01*
X14147825Y-11932627D02*
X14157348Y-11913579D01*
X14157348Y-11913579D02*
X14176396Y-11904055D01*
X14176396Y-11904055D02*
X14214491Y-11904055D01*
X14214491Y-11904055D02*
X14233539Y-11913579D01*
X14233539Y-11913579D02*
X14243063Y-11932627D01*
X14243063Y-11932627D02*
X14243063Y-11951674D01*
X14243063Y-11951674D02*
X14147825Y-11970722D01*
X14319253Y-12027865D02*
X14338301Y-12037389D01*
X14338301Y-12037389D02*
X14376396Y-12037389D01*
X14376396Y-12037389D02*
X14395444Y-12027865D01*
X14395444Y-12027865D02*
X14404967Y-12008817D01*
X14404967Y-12008817D02*
X14404967Y-11999293D01*
X14404967Y-11999293D02*
X14395444Y-11980246D01*
X14395444Y-11980246D02*
X14376396Y-11970722D01*
X14376396Y-11970722D02*
X14347825Y-11970722D01*
X14347825Y-11970722D02*
X14328777Y-11961198D01*
X14328777Y-11961198D02*
X14319253Y-11942151D01*
X14319253Y-11942151D02*
X14319253Y-11932627D01*
X14319253Y-11932627D02*
X14328777Y-11913579D01*
X14328777Y-11913579D02*
X14347825Y-11904055D01*
X14347825Y-11904055D02*
X14376396Y-11904055D01*
X14376396Y-11904055D02*
X14395444Y-11913579D01*
X14471634Y-12113579D02*
X14481158Y-12104055D01*
X14481158Y-12104055D02*
X14500206Y-12075484D01*
X14500206Y-12075484D02*
X14509729Y-12056436D01*
X14509729Y-12056436D02*
X14519253Y-12027865D01*
X14519253Y-12027865D02*
X14528777Y-11980246D01*
X14528777Y-11980246D02*
X14528777Y-11942151D01*
X14528777Y-11942151D02*
X14519253Y-11894532D01*
X14519253Y-11894532D02*
X14509729Y-11865960D01*
X14509729Y-11865960D02*
X14500206Y-11846913D01*
X14500206Y-11846913D02*
X14481158Y-11818341D01*
X14481158Y-11818341D02*
X14471634Y-11808817D01*
D12*
X9461095Y-12164905D02*
X9461095Y-12254905D01*
X9416095Y-12209905D02*
X9506095Y-12209905D01*
D11*
X9804967Y-12101389D02*
X9824015Y-12101389D01*
X9824015Y-12101389D02*
X9843062Y-12110913D01*
X9843062Y-12110913D02*
X9852586Y-12120436D01*
X9852586Y-12120436D02*
X9862110Y-12139484D01*
X9862110Y-12139484D02*
X9871634Y-12177579D01*
X9871634Y-12177579D02*
X9871634Y-12225198D01*
X9871634Y-12225198D02*
X9862110Y-12263293D01*
X9862110Y-12263293D02*
X9852586Y-12282341D01*
X9852586Y-12282341D02*
X9843062Y-12291865D01*
X9843062Y-12291865D02*
X9824015Y-12301389D01*
X9824015Y-12301389D02*
X9804967Y-12301389D01*
X9804967Y-12301389D02*
X9785919Y-12291865D01*
X9785919Y-12291865D02*
X9776396Y-12282341D01*
X9776396Y-12282341D02*
X9766872Y-12263293D01*
X9766872Y-12263293D02*
X9757348Y-12225198D01*
X9757348Y-12225198D02*
X9757348Y-12177579D01*
X9757348Y-12177579D02*
X9766872Y-12139484D01*
X9766872Y-12139484D02*
X9776396Y-12120436D01*
X9776396Y-12120436D02*
X9785919Y-12110913D01*
X9785919Y-12110913D02*
X9804967Y-12101389D01*
X9957348Y-12282341D02*
X9966872Y-12291865D01*
X9966872Y-12291865D02*
X9957348Y-12301389D01*
X9957348Y-12301389D02*
X9947824Y-12291865D01*
X9947824Y-12291865D02*
X9957348Y-12282341D01*
X9957348Y-12282341D02*
X9957348Y-12301389D01*
X10062110Y-12301389D02*
X10100205Y-12301389D01*
X10100205Y-12301389D02*
X10119253Y-12291865D01*
X10119253Y-12291865D02*
X10128777Y-12282341D01*
X10128777Y-12282341D02*
X10147824Y-12253770D01*
X10147824Y-12253770D02*
X10157348Y-12215674D01*
X10157348Y-12215674D02*
X10157348Y-12139484D01*
X10157348Y-12139484D02*
X10147824Y-12120436D01*
X10147824Y-12120436D02*
X10138300Y-12110913D01*
X10138300Y-12110913D02*
X10119253Y-12101389D01*
X10119253Y-12101389D02*
X10081158Y-12101389D01*
X10081158Y-12101389D02*
X10062110Y-12110913D01*
X10062110Y-12110913D02*
X10052586Y-12120436D01*
X10052586Y-12120436D02*
X10043062Y-12139484D01*
X10043062Y-12139484D02*
X10043062Y-12187103D01*
X10043062Y-12187103D02*
X10052586Y-12206151D01*
X10052586Y-12206151D02*
X10062110Y-12215674D01*
X10062110Y-12215674D02*
X10081158Y-12225198D01*
X10081158Y-12225198D02*
X10119253Y-12225198D01*
X10119253Y-12225198D02*
X10138300Y-12215674D01*
X10138300Y-12215674D02*
X10147824Y-12206151D01*
X10147824Y-12206151D02*
X10157348Y-12187103D01*
X10281158Y-12101389D02*
X10300205Y-12101389D01*
X10300205Y-12101389D02*
X10319253Y-12110913D01*
X10319253Y-12110913D02*
X10328777Y-12120436D01*
X10328777Y-12120436D02*
X10338300Y-12139484D01*
X10338300Y-12139484D02*
X10347824Y-12177579D01*
X10347824Y-12177579D02*
X10347824Y-12225198D01*
X10347824Y-12225198D02*
X10338300Y-12263293D01*
X10338300Y-12263293D02*
X10328777Y-12282341D01*
X10328777Y-12282341D02*
X10319253Y-12291865D01*
X10319253Y-12291865D02*
X10300205Y-12301389D01*
X10300205Y-12301389D02*
X10281158Y-12301389D01*
X10281158Y-12301389D02*
X10262110Y-12291865D01*
X10262110Y-12291865D02*
X10252586Y-12282341D01*
X10252586Y-12282341D02*
X10243062Y-12263293D01*
X10243062Y-12263293D02*
X10233539Y-12225198D01*
X10233539Y-12225198D02*
X10233539Y-12177579D01*
X10233539Y-12177579D02*
X10243062Y-12139484D01*
X10243062Y-12139484D02*
X10252586Y-12120436D01*
X10252586Y-12120436D02*
X10262110Y-12110913D01*
X10262110Y-12110913D02*
X10281158Y-12101389D01*
X10471634Y-12101389D02*
X10490681Y-12101389D01*
X10490681Y-12101389D02*
X10509729Y-12110913D01*
X10509729Y-12110913D02*
X10519253Y-12120436D01*
X10519253Y-12120436D02*
X10528777Y-12139484D01*
X10528777Y-12139484D02*
X10538300Y-12177579D01*
X10538300Y-12177579D02*
X10538300Y-12225198D01*
X10538300Y-12225198D02*
X10528777Y-12263293D01*
X10528777Y-12263293D02*
X10519253Y-12282341D01*
X10519253Y-12282341D02*
X10509729Y-12291865D01*
X10509729Y-12291865D02*
X10490681Y-12301389D01*
X10490681Y-12301389D02*
X10471634Y-12301389D01*
X10471634Y-12301389D02*
X10452586Y-12291865D01*
X10452586Y-12291865D02*
X10443062Y-12282341D01*
X10443062Y-12282341D02*
X10433539Y-12263293D01*
X10433539Y-12263293D02*
X10424015Y-12225198D01*
X10424015Y-12225198D02*
X10424015Y-12177579D01*
X10424015Y-12177579D02*
X10433539Y-12139484D01*
X10433539Y-12139484D02*
X10443062Y-12120436D01*
X10443062Y-12120436D02*
X10452586Y-12110913D01*
X10452586Y-12110913D02*
X10471634Y-12101389D01*
X10624015Y-12301389D02*
X10624015Y-12168055D01*
X10624015Y-12187103D02*
X10633539Y-12177579D01*
X10633539Y-12177579D02*
X10652586Y-12168055D01*
X10652586Y-12168055D02*
X10681158Y-12168055D01*
X10681158Y-12168055D02*
X10700205Y-12177579D01*
X10700205Y-12177579D02*
X10709729Y-12196627D01*
X10709729Y-12196627D02*
X10709729Y-12301389D01*
X10709729Y-12196627D02*
X10719253Y-12177579D01*
X10719253Y-12177579D02*
X10738300Y-12168055D01*
X10738300Y-12168055D02*
X10766872Y-12168055D01*
X10766872Y-12168055D02*
X10785920Y-12177579D01*
X10785920Y-12177579D02*
X10795443Y-12196627D01*
X10795443Y-12196627D02*
X10795443Y-12301389D01*
X10890681Y-12301389D02*
X10890681Y-12168055D01*
X10890681Y-12187103D02*
X10900205Y-12177579D01*
X10900205Y-12177579D02*
X10919253Y-12168055D01*
X10919253Y-12168055D02*
X10947824Y-12168055D01*
X10947824Y-12168055D02*
X10966872Y-12177579D01*
X10966872Y-12177579D02*
X10976396Y-12196627D01*
X10976396Y-12196627D02*
X10976396Y-12301389D01*
X10976396Y-12196627D02*
X10985920Y-12177579D01*
X10985920Y-12177579D02*
X11004967Y-12168055D01*
X11004967Y-12168055D02*
X11033539Y-12168055D01*
X11033539Y-12168055D02*
X11052586Y-12177579D01*
X11052586Y-12177579D02*
X11062110Y-12196627D01*
X11062110Y-12196627D02*
X11062110Y-12301389D01*
X11452586Y-12091865D02*
X11281158Y-12349008D01*
X11709729Y-12101389D02*
X11728777Y-12101389D01*
X11728777Y-12101389D02*
X11747824Y-12110913D01*
X11747824Y-12110913D02*
X11757348Y-12120436D01*
X11757348Y-12120436D02*
X11766872Y-12139484D01*
X11766872Y-12139484D02*
X11776396Y-12177579D01*
X11776396Y-12177579D02*
X11776396Y-12225198D01*
X11776396Y-12225198D02*
X11766872Y-12263293D01*
X11766872Y-12263293D02*
X11757348Y-12282341D01*
X11757348Y-12282341D02*
X11747824Y-12291865D01*
X11747824Y-12291865D02*
X11728777Y-12301389D01*
X11728777Y-12301389D02*
X11709729Y-12301389D01*
X11709729Y-12301389D02*
X11690681Y-12291865D01*
X11690681Y-12291865D02*
X11681158Y-12282341D01*
X11681158Y-12282341D02*
X11671634Y-12263293D01*
X11671634Y-12263293D02*
X11662110Y-12225198D01*
X11662110Y-12225198D02*
X11662110Y-12177579D01*
X11662110Y-12177579D02*
X11671634Y-12139484D01*
X11671634Y-12139484D02*
X11681158Y-12120436D01*
X11681158Y-12120436D02*
X11690681Y-12110913D01*
X11690681Y-12110913D02*
X11709729Y-12101389D01*
X11862110Y-12282341D02*
X11871634Y-12291865D01*
X11871634Y-12291865D02*
X11862110Y-12301389D01*
X11862110Y-12301389D02*
X11852586Y-12291865D01*
X11852586Y-12291865D02*
X11862110Y-12282341D01*
X11862110Y-12282341D02*
X11862110Y-12301389D01*
X11995443Y-12101389D02*
X12014491Y-12101389D01*
X12014491Y-12101389D02*
X12033539Y-12110913D01*
X12033539Y-12110913D02*
X12043062Y-12120436D01*
X12043062Y-12120436D02*
X12052586Y-12139484D01*
X12052586Y-12139484D02*
X12062110Y-12177579D01*
X12062110Y-12177579D02*
X12062110Y-12225198D01*
X12062110Y-12225198D02*
X12052586Y-12263293D01*
X12052586Y-12263293D02*
X12043062Y-12282341D01*
X12043062Y-12282341D02*
X12033539Y-12291865D01*
X12033539Y-12291865D02*
X12014491Y-12301389D01*
X12014491Y-12301389D02*
X11995443Y-12301389D01*
X11995443Y-12301389D02*
X11976396Y-12291865D01*
X11976396Y-12291865D02*
X11966872Y-12282341D01*
X11966872Y-12282341D02*
X11957348Y-12263293D01*
X11957348Y-12263293D02*
X11947824Y-12225198D01*
X11947824Y-12225198D02*
X11947824Y-12177579D01*
X11947824Y-12177579D02*
X11957348Y-12139484D01*
X11957348Y-12139484D02*
X11966872Y-12120436D01*
X11966872Y-12120436D02*
X11976396Y-12110913D01*
X11976396Y-12110913D02*
X11995443Y-12101389D01*
X12128777Y-12101389D02*
X12252586Y-12101389D01*
X12252586Y-12101389D02*
X12185920Y-12177579D01*
X12185920Y-12177579D02*
X12214491Y-12177579D01*
X12214491Y-12177579D02*
X12233539Y-12187103D01*
X12233539Y-12187103D02*
X12243062Y-12196627D01*
X12243062Y-12196627D02*
X12252586Y-12215674D01*
X12252586Y-12215674D02*
X12252586Y-12263293D01*
X12252586Y-12263293D02*
X12243062Y-12282341D01*
X12243062Y-12282341D02*
X12233539Y-12291865D01*
X12233539Y-12291865D02*
X12214491Y-12301389D01*
X12214491Y-12301389D02*
X12157348Y-12301389D01*
X12157348Y-12301389D02*
X12138301Y-12291865D01*
X12138301Y-12291865D02*
X12128777Y-12282341D01*
X12433539Y-12101389D02*
X12338301Y-12101389D01*
X12338301Y-12101389D02*
X12328777Y-12196627D01*
X12328777Y-12196627D02*
X12338301Y-12187103D01*
X12338301Y-12187103D02*
X12357348Y-12177579D01*
X12357348Y-12177579D02*
X12404967Y-12177579D01*
X12404967Y-12177579D02*
X12424015Y-12187103D01*
X12424015Y-12187103D02*
X12433539Y-12196627D01*
X12433539Y-12196627D02*
X12443062Y-12215674D01*
X12443062Y-12215674D02*
X12443062Y-12263293D01*
X12443062Y-12263293D02*
X12433539Y-12282341D01*
X12433539Y-12282341D02*
X12424015Y-12291865D01*
X12424015Y-12291865D02*
X12404967Y-12301389D01*
X12404967Y-12301389D02*
X12357348Y-12301389D01*
X12357348Y-12301389D02*
X12338301Y-12291865D01*
X12338301Y-12291865D02*
X12328777Y-12282341D01*
X12614491Y-12168055D02*
X12614491Y-12301389D01*
X12566872Y-12091865D02*
X12519253Y-12234722D01*
X12519253Y-12234722D02*
X12643062Y-12234722D01*
X12709729Y-12101389D02*
X12709729Y-12139484D01*
X12785920Y-12101389D02*
X12785920Y-12139484D01*
X13081158Y-12377579D02*
X13071634Y-12368055D01*
X13071634Y-12368055D02*
X13052586Y-12339484D01*
X13052586Y-12339484D02*
X13043063Y-12320436D01*
X13043063Y-12320436D02*
X13033539Y-12291865D01*
X13033539Y-12291865D02*
X13024015Y-12244246D01*
X13024015Y-12244246D02*
X13024015Y-12206151D01*
X13024015Y-12206151D02*
X13033539Y-12158532D01*
X13033539Y-12158532D02*
X13043063Y-12129960D01*
X13043063Y-12129960D02*
X13052586Y-12110913D01*
X13052586Y-12110913D02*
X13071634Y-12082341D01*
X13071634Y-12082341D02*
X13081158Y-12072817D01*
X13262110Y-12301389D02*
X13147824Y-12301389D01*
X13204967Y-12301389D02*
X13204967Y-12101389D01*
X13204967Y-12101389D02*
X13185920Y-12129960D01*
X13185920Y-12129960D02*
X13166872Y-12149008D01*
X13166872Y-12149008D02*
X13147824Y-12158532D01*
X13433539Y-12101389D02*
X13395443Y-12101389D01*
X13395443Y-12101389D02*
X13376396Y-12110913D01*
X13376396Y-12110913D02*
X13366872Y-12120436D01*
X13366872Y-12120436D02*
X13347824Y-12149008D01*
X13347824Y-12149008D02*
X13338301Y-12187103D01*
X13338301Y-12187103D02*
X13338301Y-12263293D01*
X13338301Y-12263293D02*
X13347824Y-12282341D01*
X13347824Y-12282341D02*
X13357348Y-12291865D01*
X13357348Y-12291865D02*
X13376396Y-12301389D01*
X13376396Y-12301389D02*
X13414491Y-12301389D01*
X13414491Y-12301389D02*
X13433539Y-12291865D01*
X13433539Y-12291865D02*
X13443063Y-12282341D01*
X13443063Y-12282341D02*
X13452586Y-12263293D01*
X13452586Y-12263293D02*
X13452586Y-12215674D01*
X13452586Y-12215674D02*
X13443063Y-12196627D01*
X13443063Y-12196627D02*
X13433539Y-12187103D01*
X13433539Y-12187103D02*
X13414491Y-12177579D01*
X13414491Y-12177579D02*
X13376396Y-12177579D01*
X13376396Y-12177579D02*
X13357348Y-12187103D01*
X13357348Y-12187103D02*
X13347824Y-12196627D01*
X13347824Y-12196627D02*
X13338301Y-12215674D01*
X13690682Y-12301389D02*
X13690682Y-12101389D01*
X13776396Y-12301389D02*
X13776396Y-12196627D01*
X13776396Y-12196627D02*
X13766872Y-12177579D01*
X13766872Y-12177579D02*
X13747825Y-12168055D01*
X13747825Y-12168055D02*
X13719253Y-12168055D01*
X13719253Y-12168055D02*
X13700205Y-12177579D01*
X13700205Y-12177579D02*
X13690682Y-12187103D01*
X13900205Y-12301389D02*
X13881158Y-12291865D01*
X13881158Y-12291865D02*
X13871634Y-12282341D01*
X13871634Y-12282341D02*
X13862110Y-12263293D01*
X13862110Y-12263293D02*
X13862110Y-12206151D01*
X13862110Y-12206151D02*
X13871634Y-12187103D01*
X13871634Y-12187103D02*
X13881158Y-12177579D01*
X13881158Y-12177579D02*
X13900205Y-12168055D01*
X13900205Y-12168055D02*
X13928777Y-12168055D01*
X13928777Y-12168055D02*
X13947825Y-12177579D01*
X13947825Y-12177579D02*
X13957348Y-12187103D01*
X13957348Y-12187103D02*
X13966872Y-12206151D01*
X13966872Y-12206151D02*
X13966872Y-12263293D01*
X13966872Y-12263293D02*
X13957348Y-12282341D01*
X13957348Y-12282341D02*
X13947825Y-12291865D01*
X13947825Y-12291865D02*
X13928777Y-12301389D01*
X13928777Y-12301389D02*
X13900205Y-12301389D01*
X14081158Y-12301389D02*
X14062110Y-12291865D01*
X14062110Y-12291865D02*
X14052586Y-12272817D01*
X14052586Y-12272817D02*
X14052586Y-12101389D01*
X14233539Y-12291865D02*
X14214491Y-12301389D01*
X14214491Y-12301389D02*
X14176396Y-12301389D01*
X14176396Y-12301389D02*
X14157348Y-12291865D01*
X14157348Y-12291865D02*
X14147825Y-12272817D01*
X14147825Y-12272817D02*
X14147825Y-12196627D01*
X14147825Y-12196627D02*
X14157348Y-12177579D01*
X14157348Y-12177579D02*
X14176396Y-12168055D01*
X14176396Y-12168055D02*
X14214491Y-12168055D01*
X14214491Y-12168055D02*
X14233539Y-12177579D01*
X14233539Y-12177579D02*
X14243063Y-12196627D01*
X14243063Y-12196627D02*
X14243063Y-12215674D01*
X14243063Y-12215674D02*
X14147825Y-12234722D01*
X14319253Y-12291865D02*
X14338301Y-12301389D01*
X14338301Y-12301389D02*
X14376396Y-12301389D01*
X14376396Y-12301389D02*
X14395444Y-12291865D01*
X14395444Y-12291865D02*
X14404967Y-12272817D01*
X14404967Y-12272817D02*
X14404967Y-12263293D01*
X14404967Y-12263293D02*
X14395444Y-12244246D01*
X14395444Y-12244246D02*
X14376396Y-12234722D01*
X14376396Y-12234722D02*
X14347825Y-12234722D01*
X14347825Y-12234722D02*
X14328777Y-12225198D01*
X14328777Y-12225198D02*
X14319253Y-12206151D01*
X14319253Y-12206151D02*
X14319253Y-12196627D01*
X14319253Y-12196627D02*
X14328777Y-12177579D01*
X14328777Y-12177579D02*
X14347825Y-12168055D01*
X14347825Y-12168055D02*
X14376396Y-12168055D01*
X14376396Y-12168055D02*
X14395444Y-12177579D01*
X14471634Y-12377579D02*
X14481158Y-12368055D01*
X14481158Y-12368055D02*
X14500206Y-12339484D01*
X14500206Y-12339484D02*
X14509729Y-12320436D01*
X14509729Y-12320436D02*
X14519253Y-12291865D01*
X14519253Y-12291865D02*
X14528777Y-12244246D01*
X14528777Y-12244246D02*
X14528777Y-12206151D01*
X14528777Y-12206151D02*
X14519253Y-12158532D01*
X14519253Y-12158532D02*
X14509729Y-12129960D01*
X14509729Y-12129960D02*
X14500206Y-12110913D01*
X14500206Y-12110913D02*
X14481158Y-12082341D01*
X14481158Y-12082341D02*
X14471634Y-12072817D01*
D12*
X9492183Y-12507493D02*
X9492183Y-12440317D01*
X9425007Y-12440317D01*
X9425007Y-12507493D01*
X9492183Y-12507493D01*
D11*
X9804967Y-12365389D02*
X9824015Y-12365389D01*
X9824015Y-12365389D02*
X9843062Y-12374913D01*
X9843062Y-12374913D02*
X9852586Y-12384436D01*
X9852586Y-12384436D02*
X9862110Y-12403484D01*
X9862110Y-12403484D02*
X9871634Y-12441579D01*
X9871634Y-12441579D02*
X9871634Y-12489198D01*
X9871634Y-12489198D02*
X9862110Y-12527293D01*
X9862110Y-12527293D02*
X9852586Y-12546341D01*
X9852586Y-12546341D02*
X9843062Y-12555865D01*
X9843062Y-12555865D02*
X9824015Y-12565389D01*
X9824015Y-12565389D02*
X9804967Y-12565389D01*
X9804967Y-12565389D02*
X9785919Y-12555865D01*
X9785919Y-12555865D02*
X9776396Y-12546341D01*
X9776396Y-12546341D02*
X9766872Y-12527293D01*
X9766872Y-12527293D02*
X9757348Y-12489198D01*
X9757348Y-12489198D02*
X9757348Y-12441579D01*
X9757348Y-12441579D02*
X9766872Y-12403484D01*
X9766872Y-12403484D02*
X9776396Y-12384436D01*
X9776396Y-12384436D02*
X9785919Y-12374913D01*
X9785919Y-12374913D02*
X9804967Y-12365389D01*
X9957348Y-12546341D02*
X9966872Y-12555865D01*
X9966872Y-12555865D02*
X9957348Y-12565389D01*
X9957348Y-12565389D02*
X9947824Y-12555865D01*
X9947824Y-12555865D02*
X9957348Y-12546341D01*
X9957348Y-12546341D02*
X9957348Y-12565389D01*
X10062110Y-12565389D02*
X10100205Y-12565389D01*
X10100205Y-12565389D02*
X10119253Y-12555865D01*
X10119253Y-12555865D02*
X10128777Y-12546341D01*
X10128777Y-12546341D02*
X10147824Y-12517770D01*
X10147824Y-12517770D02*
X10157348Y-12479674D01*
X10157348Y-12479674D02*
X10157348Y-12403484D01*
X10157348Y-12403484D02*
X10147824Y-12384436D01*
X10147824Y-12384436D02*
X10138300Y-12374913D01*
X10138300Y-12374913D02*
X10119253Y-12365389D01*
X10119253Y-12365389D02*
X10081158Y-12365389D01*
X10081158Y-12365389D02*
X10062110Y-12374913D01*
X10062110Y-12374913D02*
X10052586Y-12384436D01*
X10052586Y-12384436D02*
X10043062Y-12403484D01*
X10043062Y-12403484D02*
X10043062Y-12451103D01*
X10043062Y-12451103D02*
X10052586Y-12470151D01*
X10052586Y-12470151D02*
X10062110Y-12479674D01*
X10062110Y-12479674D02*
X10081158Y-12489198D01*
X10081158Y-12489198D02*
X10119253Y-12489198D01*
X10119253Y-12489198D02*
X10138300Y-12479674D01*
X10138300Y-12479674D02*
X10147824Y-12470151D01*
X10147824Y-12470151D02*
X10157348Y-12451103D01*
X10338300Y-12365389D02*
X10243062Y-12365389D01*
X10243062Y-12365389D02*
X10233539Y-12460627D01*
X10233539Y-12460627D02*
X10243062Y-12451103D01*
X10243062Y-12451103D02*
X10262110Y-12441579D01*
X10262110Y-12441579D02*
X10309729Y-12441579D01*
X10309729Y-12441579D02*
X10328777Y-12451103D01*
X10328777Y-12451103D02*
X10338300Y-12460627D01*
X10338300Y-12460627D02*
X10347824Y-12479674D01*
X10347824Y-12479674D02*
X10347824Y-12527293D01*
X10347824Y-12527293D02*
X10338300Y-12546341D01*
X10338300Y-12546341D02*
X10328777Y-12555865D01*
X10328777Y-12555865D02*
X10309729Y-12565389D01*
X10309729Y-12565389D02*
X10262110Y-12565389D01*
X10262110Y-12565389D02*
X10243062Y-12555865D01*
X10243062Y-12555865D02*
X10233539Y-12546341D01*
X10471634Y-12365389D02*
X10490681Y-12365389D01*
X10490681Y-12365389D02*
X10509729Y-12374913D01*
X10509729Y-12374913D02*
X10519253Y-12384436D01*
X10519253Y-12384436D02*
X10528777Y-12403484D01*
X10528777Y-12403484D02*
X10538300Y-12441579D01*
X10538300Y-12441579D02*
X10538300Y-12489198D01*
X10538300Y-12489198D02*
X10528777Y-12527293D01*
X10528777Y-12527293D02*
X10519253Y-12546341D01*
X10519253Y-12546341D02*
X10509729Y-12555865D01*
X10509729Y-12555865D02*
X10490681Y-12565389D01*
X10490681Y-12565389D02*
X10471634Y-12565389D01*
X10471634Y-12565389D02*
X10452586Y-12555865D01*
X10452586Y-12555865D02*
X10443062Y-12546341D01*
X10443062Y-12546341D02*
X10433539Y-12527293D01*
X10433539Y-12527293D02*
X10424015Y-12489198D01*
X10424015Y-12489198D02*
X10424015Y-12441579D01*
X10424015Y-12441579D02*
X10433539Y-12403484D01*
X10433539Y-12403484D02*
X10443062Y-12384436D01*
X10443062Y-12384436D02*
X10452586Y-12374913D01*
X10452586Y-12374913D02*
X10471634Y-12365389D01*
X10624015Y-12565389D02*
X10624015Y-12432055D01*
X10624015Y-12451103D02*
X10633539Y-12441579D01*
X10633539Y-12441579D02*
X10652586Y-12432055D01*
X10652586Y-12432055D02*
X10681158Y-12432055D01*
X10681158Y-12432055D02*
X10700205Y-12441579D01*
X10700205Y-12441579D02*
X10709729Y-12460627D01*
X10709729Y-12460627D02*
X10709729Y-12565389D01*
X10709729Y-12460627D02*
X10719253Y-12441579D01*
X10719253Y-12441579D02*
X10738300Y-12432055D01*
X10738300Y-12432055D02*
X10766872Y-12432055D01*
X10766872Y-12432055D02*
X10785920Y-12441579D01*
X10785920Y-12441579D02*
X10795443Y-12460627D01*
X10795443Y-12460627D02*
X10795443Y-12565389D01*
X10890681Y-12565389D02*
X10890681Y-12432055D01*
X10890681Y-12451103D02*
X10900205Y-12441579D01*
X10900205Y-12441579D02*
X10919253Y-12432055D01*
X10919253Y-12432055D02*
X10947824Y-12432055D01*
X10947824Y-12432055D02*
X10966872Y-12441579D01*
X10966872Y-12441579D02*
X10976396Y-12460627D01*
X10976396Y-12460627D02*
X10976396Y-12565389D01*
X10976396Y-12460627D02*
X10985920Y-12441579D01*
X10985920Y-12441579D02*
X11004967Y-12432055D01*
X11004967Y-12432055D02*
X11033539Y-12432055D01*
X11033539Y-12432055D02*
X11052586Y-12441579D01*
X11052586Y-12441579D02*
X11062110Y-12460627D01*
X11062110Y-12460627D02*
X11062110Y-12565389D01*
X11452586Y-12355865D02*
X11281158Y-12613008D01*
X11709729Y-12365389D02*
X11728777Y-12365389D01*
X11728777Y-12365389D02*
X11747824Y-12374913D01*
X11747824Y-12374913D02*
X11757348Y-12384436D01*
X11757348Y-12384436D02*
X11766872Y-12403484D01*
X11766872Y-12403484D02*
X11776396Y-12441579D01*
X11776396Y-12441579D02*
X11776396Y-12489198D01*
X11776396Y-12489198D02*
X11766872Y-12527293D01*
X11766872Y-12527293D02*
X11757348Y-12546341D01*
X11757348Y-12546341D02*
X11747824Y-12555865D01*
X11747824Y-12555865D02*
X11728777Y-12565389D01*
X11728777Y-12565389D02*
X11709729Y-12565389D01*
X11709729Y-12565389D02*
X11690681Y-12555865D01*
X11690681Y-12555865D02*
X11681158Y-12546341D01*
X11681158Y-12546341D02*
X11671634Y-12527293D01*
X11671634Y-12527293D02*
X11662110Y-12489198D01*
X11662110Y-12489198D02*
X11662110Y-12441579D01*
X11662110Y-12441579D02*
X11671634Y-12403484D01*
X11671634Y-12403484D02*
X11681158Y-12384436D01*
X11681158Y-12384436D02*
X11690681Y-12374913D01*
X11690681Y-12374913D02*
X11709729Y-12365389D01*
X11862110Y-12546341D02*
X11871634Y-12555865D01*
X11871634Y-12555865D02*
X11862110Y-12565389D01*
X11862110Y-12565389D02*
X11852586Y-12555865D01*
X11852586Y-12555865D02*
X11862110Y-12546341D01*
X11862110Y-12546341D02*
X11862110Y-12565389D01*
X11995443Y-12365389D02*
X12014491Y-12365389D01*
X12014491Y-12365389D02*
X12033539Y-12374913D01*
X12033539Y-12374913D02*
X12043062Y-12384436D01*
X12043062Y-12384436D02*
X12052586Y-12403484D01*
X12052586Y-12403484D02*
X12062110Y-12441579D01*
X12062110Y-12441579D02*
X12062110Y-12489198D01*
X12062110Y-12489198D02*
X12052586Y-12527293D01*
X12052586Y-12527293D02*
X12043062Y-12546341D01*
X12043062Y-12546341D02*
X12033539Y-12555865D01*
X12033539Y-12555865D02*
X12014491Y-12565389D01*
X12014491Y-12565389D02*
X11995443Y-12565389D01*
X11995443Y-12565389D02*
X11976396Y-12555865D01*
X11976396Y-12555865D02*
X11966872Y-12546341D01*
X11966872Y-12546341D02*
X11957348Y-12527293D01*
X11957348Y-12527293D02*
X11947824Y-12489198D01*
X11947824Y-12489198D02*
X11947824Y-12441579D01*
X11947824Y-12441579D02*
X11957348Y-12403484D01*
X11957348Y-12403484D02*
X11966872Y-12384436D01*
X11966872Y-12384436D02*
X11976396Y-12374913D01*
X11976396Y-12374913D02*
X11995443Y-12365389D01*
X12128777Y-12365389D02*
X12252586Y-12365389D01*
X12252586Y-12365389D02*
X12185920Y-12441579D01*
X12185920Y-12441579D02*
X12214491Y-12441579D01*
X12214491Y-12441579D02*
X12233539Y-12451103D01*
X12233539Y-12451103D02*
X12243062Y-12460627D01*
X12243062Y-12460627D02*
X12252586Y-12479674D01*
X12252586Y-12479674D02*
X12252586Y-12527293D01*
X12252586Y-12527293D02*
X12243062Y-12546341D01*
X12243062Y-12546341D02*
X12233539Y-12555865D01*
X12233539Y-12555865D02*
X12214491Y-12565389D01*
X12214491Y-12565389D02*
X12157348Y-12565389D01*
X12157348Y-12565389D02*
X12138301Y-12555865D01*
X12138301Y-12555865D02*
X12128777Y-12546341D01*
X12319253Y-12365389D02*
X12452586Y-12365389D01*
X12452586Y-12365389D02*
X12366872Y-12565389D01*
X12614491Y-12432055D02*
X12614491Y-12565389D01*
X12566872Y-12355865D02*
X12519253Y-12498722D01*
X12519253Y-12498722D02*
X12643062Y-12498722D01*
X12709729Y-12365389D02*
X12709729Y-12403484D01*
X12785920Y-12365389D02*
X12785920Y-12403484D01*
X13081158Y-12641579D02*
X13071634Y-12632055D01*
X13071634Y-12632055D02*
X13052586Y-12603484D01*
X13052586Y-12603484D02*
X13043063Y-12584436D01*
X13043063Y-12584436D02*
X13033539Y-12555865D01*
X13033539Y-12555865D02*
X13024015Y-12508246D01*
X13024015Y-12508246D02*
X13024015Y-12470151D01*
X13024015Y-12470151D02*
X13033539Y-12422532D01*
X13033539Y-12422532D02*
X13043063Y-12393960D01*
X13043063Y-12393960D02*
X13052586Y-12374913D01*
X13052586Y-12374913D02*
X13071634Y-12346341D01*
X13071634Y-12346341D02*
X13081158Y-12336817D01*
X13185920Y-12451103D02*
X13166872Y-12441579D01*
X13166872Y-12441579D02*
X13157348Y-12432055D01*
X13157348Y-12432055D02*
X13147824Y-12413008D01*
X13147824Y-12413008D02*
X13147824Y-12403484D01*
X13147824Y-12403484D02*
X13157348Y-12384436D01*
X13157348Y-12384436D02*
X13166872Y-12374913D01*
X13166872Y-12374913D02*
X13185920Y-12365389D01*
X13185920Y-12365389D02*
X13224015Y-12365389D01*
X13224015Y-12365389D02*
X13243063Y-12374913D01*
X13243063Y-12374913D02*
X13252586Y-12384436D01*
X13252586Y-12384436D02*
X13262110Y-12403484D01*
X13262110Y-12403484D02*
X13262110Y-12413008D01*
X13262110Y-12413008D02*
X13252586Y-12432055D01*
X13252586Y-12432055D02*
X13243063Y-12441579D01*
X13243063Y-12441579D02*
X13224015Y-12451103D01*
X13224015Y-12451103D02*
X13185920Y-12451103D01*
X13185920Y-12451103D02*
X13166872Y-12460627D01*
X13166872Y-12460627D02*
X13157348Y-12470151D01*
X13157348Y-12470151D02*
X13147824Y-12489198D01*
X13147824Y-12489198D02*
X13147824Y-12527293D01*
X13147824Y-12527293D02*
X13157348Y-12546341D01*
X13157348Y-12546341D02*
X13166872Y-12555865D01*
X13166872Y-12555865D02*
X13185920Y-12565389D01*
X13185920Y-12565389D02*
X13224015Y-12565389D01*
X13224015Y-12565389D02*
X13243063Y-12555865D01*
X13243063Y-12555865D02*
X13252586Y-12546341D01*
X13252586Y-12546341D02*
X13262110Y-12527293D01*
X13262110Y-12527293D02*
X13262110Y-12489198D01*
X13262110Y-12489198D02*
X13252586Y-12470151D01*
X13252586Y-12470151D02*
X13243063Y-12460627D01*
X13243063Y-12460627D02*
X13224015Y-12451103D01*
X13500205Y-12565389D02*
X13500205Y-12365389D01*
X13585920Y-12565389D02*
X13585920Y-12460627D01*
X13585920Y-12460627D02*
X13576396Y-12441579D01*
X13576396Y-12441579D02*
X13557348Y-12432055D01*
X13557348Y-12432055D02*
X13528777Y-12432055D01*
X13528777Y-12432055D02*
X13509729Y-12441579D01*
X13509729Y-12441579D02*
X13500205Y-12451103D01*
X13709729Y-12565389D02*
X13690682Y-12555865D01*
X13690682Y-12555865D02*
X13681158Y-12546341D01*
X13681158Y-12546341D02*
X13671634Y-12527293D01*
X13671634Y-12527293D02*
X13671634Y-12470151D01*
X13671634Y-12470151D02*
X13681158Y-12451103D01*
X13681158Y-12451103D02*
X13690682Y-12441579D01*
X13690682Y-12441579D02*
X13709729Y-12432055D01*
X13709729Y-12432055D02*
X13738301Y-12432055D01*
X13738301Y-12432055D02*
X13757348Y-12441579D01*
X13757348Y-12441579D02*
X13766872Y-12451103D01*
X13766872Y-12451103D02*
X13776396Y-12470151D01*
X13776396Y-12470151D02*
X13776396Y-12527293D01*
X13776396Y-12527293D02*
X13766872Y-12546341D01*
X13766872Y-12546341D02*
X13757348Y-12555865D01*
X13757348Y-12555865D02*
X13738301Y-12565389D01*
X13738301Y-12565389D02*
X13709729Y-12565389D01*
X13890682Y-12565389D02*
X13871634Y-12555865D01*
X13871634Y-12555865D02*
X13862110Y-12536817D01*
X13862110Y-12536817D02*
X13862110Y-12365389D01*
X14043063Y-12555865D02*
X14024015Y-12565389D01*
X14024015Y-12565389D02*
X13985920Y-12565389D01*
X13985920Y-12565389D02*
X13966872Y-12555865D01*
X13966872Y-12555865D02*
X13957348Y-12536817D01*
X13957348Y-12536817D02*
X13957348Y-12460627D01*
X13957348Y-12460627D02*
X13966872Y-12441579D01*
X13966872Y-12441579D02*
X13985920Y-12432055D01*
X13985920Y-12432055D02*
X14024015Y-12432055D01*
X14024015Y-12432055D02*
X14043063Y-12441579D01*
X14043063Y-12441579D02*
X14052586Y-12460627D01*
X14052586Y-12460627D02*
X14052586Y-12479674D01*
X14052586Y-12479674D02*
X13957348Y-12498722D01*
X14128777Y-12555865D02*
X14147825Y-12565389D01*
X14147825Y-12565389D02*
X14185920Y-12565389D01*
X14185920Y-12565389D02*
X14204967Y-12555865D01*
X14204967Y-12555865D02*
X14214491Y-12536817D01*
X14214491Y-12536817D02*
X14214491Y-12527293D01*
X14214491Y-12527293D02*
X14204967Y-12508246D01*
X14204967Y-12508246D02*
X14185920Y-12498722D01*
X14185920Y-12498722D02*
X14157348Y-12498722D01*
X14157348Y-12498722D02*
X14138301Y-12489198D01*
X14138301Y-12489198D02*
X14128777Y-12470151D01*
X14128777Y-12470151D02*
X14128777Y-12460627D01*
X14128777Y-12460627D02*
X14138301Y-12441579D01*
X14138301Y-12441579D02*
X14157348Y-12432055D01*
X14157348Y-12432055D02*
X14185920Y-12432055D01*
X14185920Y-12432055D02*
X14204967Y-12441579D01*
X14281158Y-12641579D02*
X14290682Y-12632055D01*
X14290682Y-12632055D02*
X14309729Y-12603484D01*
X14309729Y-12603484D02*
X14319253Y-12584436D01*
X14319253Y-12584436D02*
X14328777Y-12555865D01*
X14328777Y-12555865D02*
X14338301Y-12508246D01*
X14338301Y-12508246D02*
X14338301Y-12470151D01*
X14338301Y-12470151D02*
X14328777Y-12422532D01*
X14328777Y-12422532D02*
X14319253Y-12393960D01*
X14319253Y-12393960D02*
X14309729Y-12374913D01*
X14309729Y-12374913D02*
X14290682Y-12346341D01*
X14290682Y-12346341D02*
X14281158Y-12336817D01*
D12*
X9456095Y-12787905D02*
X9506095Y-12737905D01*
X9456095Y-12687905D01*
X9406095Y-12737905D01*
X9456095Y-12787905D01*
D11*
X9871634Y-12829389D02*
X9757348Y-12829389D01*
X9814491Y-12829389D02*
X9814491Y-12629389D01*
X9814491Y-12629389D02*
X9795443Y-12657960D01*
X9795443Y-12657960D02*
X9776396Y-12677008D01*
X9776396Y-12677008D02*
X9757348Y-12686532D01*
X9957348Y-12810341D02*
X9966872Y-12819865D01*
X9966872Y-12819865D02*
X9957348Y-12829389D01*
X9957348Y-12829389D02*
X9947824Y-12819865D01*
X9947824Y-12819865D02*
X9957348Y-12810341D01*
X9957348Y-12810341D02*
X9957348Y-12829389D01*
X10090681Y-12629389D02*
X10109729Y-12629389D01*
X10109729Y-12629389D02*
X10128777Y-12638913D01*
X10128777Y-12638913D02*
X10138300Y-12648436D01*
X10138300Y-12648436D02*
X10147824Y-12667484D01*
X10147824Y-12667484D02*
X10157348Y-12705579D01*
X10157348Y-12705579D02*
X10157348Y-12753198D01*
X10157348Y-12753198D02*
X10147824Y-12791293D01*
X10147824Y-12791293D02*
X10138300Y-12810341D01*
X10138300Y-12810341D02*
X10128777Y-12819865D01*
X10128777Y-12819865D02*
X10109729Y-12829389D01*
X10109729Y-12829389D02*
X10090681Y-12829389D01*
X10090681Y-12829389D02*
X10071634Y-12819865D01*
X10071634Y-12819865D02*
X10062110Y-12810341D01*
X10062110Y-12810341D02*
X10052586Y-12791293D01*
X10052586Y-12791293D02*
X10043062Y-12753198D01*
X10043062Y-12753198D02*
X10043062Y-12705579D01*
X10043062Y-12705579D02*
X10052586Y-12667484D01*
X10052586Y-12667484D02*
X10062110Y-12648436D01*
X10062110Y-12648436D02*
X10071634Y-12638913D01*
X10071634Y-12638913D02*
X10090681Y-12629389D01*
X10281158Y-12629389D02*
X10300205Y-12629389D01*
X10300205Y-12629389D02*
X10319253Y-12638913D01*
X10319253Y-12638913D02*
X10328777Y-12648436D01*
X10328777Y-12648436D02*
X10338300Y-12667484D01*
X10338300Y-12667484D02*
X10347824Y-12705579D01*
X10347824Y-12705579D02*
X10347824Y-12753198D01*
X10347824Y-12753198D02*
X10338300Y-12791293D01*
X10338300Y-12791293D02*
X10328777Y-12810341D01*
X10328777Y-12810341D02*
X10319253Y-12819865D01*
X10319253Y-12819865D02*
X10300205Y-12829389D01*
X10300205Y-12829389D02*
X10281158Y-12829389D01*
X10281158Y-12829389D02*
X10262110Y-12819865D01*
X10262110Y-12819865D02*
X10252586Y-12810341D01*
X10252586Y-12810341D02*
X10243062Y-12791293D01*
X10243062Y-12791293D02*
X10233539Y-12753198D01*
X10233539Y-12753198D02*
X10233539Y-12705579D01*
X10233539Y-12705579D02*
X10243062Y-12667484D01*
X10243062Y-12667484D02*
X10252586Y-12648436D01*
X10252586Y-12648436D02*
X10262110Y-12638913D01*
X10262110Y-12638913D02*
X10281158Y-12629389D01*
X10471634Y-12629389D02*
X10490681Y-12629389D01*
X10490681Y-12629389D02*
X10509729Y-12638913D01*
X10509729Y-12638913D02*
X10519253Y-12648436D01*
X10519253Y-12648436D02*
X10528777Y-12667484D01*
X10528777Y-12667484D02*
X10538300Y-12705579D01*
X10538300Y-12705579D02*
X10538300Y-12753198D01*
X10538300Y-12753198D02*
X10528777Y-12791293D01*
X10528777Y-12791293D02*
X10519253Y-12810341D01*
X10519253Y-12810341D02*
X10509729Y-12819865D01*
X10509729Y-12819865D02*
X10490681Y-12829389D01*
X10490681Y-12829389D02*
X10471634Y-12829389D01*
X10471634Y-12829389D02*
X10452586Y-12819865D01*
X10452586Y-12819865D02*
X10443062Y-12810341D01*
X10443062Y-12810341D02*
X10433539Y-12791293D01*
X10433539Y-12791293D02*
X10424015Y-12753198D01*
X10424015Y-12753198D02*
X10424015Y-12705579D01*
X10424015Y-12705579D02*
X10433539Y-12667484D01*
X10433539Y-12667484D02*
X10443062Y-12648436D01*
X10443062Y-12648436D02*
X10452586Y-12638913D01*
X10452586Y-12638913D02*
X10471634Y-12629389D01*
X10624015Y-12829389D02*
X10624015Y-12696055D01*
X10624015Y-12715103D02*
X10633539Y-12705579D01*
X10633539Y-12705579D02*
X10652586Y-12696055D01*
X10652586Y-12696055D02*
X10681158Y-12696055D01*
X10681158Y-12696055D02*
X10700205Y-12705579D01*
X10700205Y-12705579D02*
X10709729Y-12724627D01*
X10709729Y-12724627D02*
X10709729Y-12829389D01*
X10709729Y-12724627D02*
X10719253Y-12705579D01*
X10719253Y-12705579D02*
X10738300Y-12696055D01*
X10738300Y-12696055D02*
X10766872Y-12696055D01*
X10766872Y-12696055D02*
X10785920Y-12705579D01*
X10785920Y-12705579D02*
X10795443Y-12724627D01*
X10795443Y-12724627D02*
X10795443Y-12829389D01*
X10890681Y-12829389D02*
X10890681Y-12696055D01*
X10890681Y-12715103D02*
X10900205Y-12705579D01*
X10900205Y-12705579D02*
X10919253Y-12696055D01*
X10919253Y-12696055D02*
X10947824Y-12696055D01*
X10947824Y-12696055D02*
X10966872Y-12705579D01*
X10966872Y-12705579D02*
X10976396Y-12724627D01*
X10976396Y-12724627D02*
X10976396Y-12829389D01*
X10976396Y-12724627D02*
X10985920Y-12705579D01*
X10985920Y-12705579D02*
X11004967Y-12696055D01*
X11004967Y-12696055D02*
X11033539Y-12696055D01*
X11033539Y-12696055D02*
X11052586Y-12705579D01*
X11052586Y-12705579D02*
X11062110Y-12724627D01*
X11062110Y-12724627D02*
X11062110Y-12829389D01*
X11452586Y-12619865D02*
X11281158Y-12877008D01*
X11709729Y-12629389D02*
X11728777Y-12629389D01*
X11728777Y-12629389D02*
X11747824Y-12638913D01*
X11747824Y-12638913D02*
X11757348Y-12648436D01*
X11757348Y-12648436D02*
X11766872Y-12667484D01*
X11766872Y-12667484D02*
X11776396Y-12705579D01*
X11776396Y-12705579D02*
X11776396Y-12753198D01*
X11776396Y-12753198D02*
X11766872Y-12791293D01*
X11766872Y-12791293D02*
X11757348Y-12810341D01*
X11757348Y-12810341D02*
X11747824Y-12819865D01*
X11747824Y-12819865D02*
X11728777Y-12829389D01*
X11728777Y-12829389D02*
X11709729Y-12829389D01*
X11709729Y-12829389D02*
X11690681Y-12819865D01*
X11690681Y-12819865D02*
X11681158Y-12810341D01*
X11681158Y-12810341D02*
X11671634Y-12791293D01*
X11671634Y-12791293D02*
X11662110Y-12753198D01*
X11662110Y-12753198D02*
X11662110Y-12705579D01*
X11662110Y-12705579D02*
X11671634Y-12667484D01*
X11671634Y-12667484D02*
X11681158Y-12648436D01*
X11681158Y-12648436D02*
X11690681Y-12638913D01*
X11690681Y-12638913D02*
X11709729Y-12629389D01*
X11862110Y-12810341D02*
X11871634Y-12819865D01*
X11871634Y-12819865D02*
X11862110Y-12829389D01*
X11862110Y-12829389D02*
X11852586Y-12819865D01*
X11852586Y-12819865D02*
X11862110Y-12810341D01*
X11862110Y-12810341D02*
X11862110Y-12829389D01*
X11995443Y-12629389D02*
X12014491Y-12629389D01*
X12014491Y-12629389D02*
X12033539Y-12638913D01*
X12033539Y-12638913D02*
X12043062Y-12648436D01*
X12043062Y-12648436D02*
X12052586Y-12667484D01*
X12052586Y-12667484D02*
X12062110Y-12705579D01*
X12062110Y-12705579D02*
X12062110Y-12753198D01*
X12062110Y-12753198D02*
X12052586Y-12791293D01*
X12052586Y-12791293D02*
X12043062Y-12810341D01*
X12043062Y-12810341D02*
X12033539Y-12819865D01*
X12033539Y-12819865D02*
X12014491Y-12829389D01*
X12014491Y-12829389D02*
X11995443Y-12829389D01*
X11995443Y-12829389D02*
X11976396Y-12819865D01*
X11976396Y-12819865D02*
X11966872Y-12810341D01*
X11966872Y-12810341D02*
X11957348Y-12791293D01*
X11957348Y-12791293D02*
X11947824Y-12753198D01*
X11947824Y-12753198D02*
X11947824Y-12705579D01*
X11947824Y-12705579D02*
X11957348Y-12667484D01*
X11957348Y-12667484D02*
X11966872Y-12648436D01*
X11966872Y-12648436D02*
X11976396Y-12638913D01*
X11976396Y-12638913D02*
X11995443Y-12629389D01*
X12128777Y-12629389D02*
X12252586Y-12629389D01*
X12252586Y-12629389D02*
X12185920Y-12705579D01*
X12185920Y-12705579D02*
X12214491Y-12705579D01*
X12214491Y-12705579D02*
X12233539Y-12715103D01*
X12233539Y-12715103D02*
X12243062Y-12724627D01*
X12243062Y-12724627D02*
X12252586Y-12743674D01*
X12252586Y-12743674D02*
X12252586Y-12791293D01*
X12252586Y-12791293D02*
X12243062Y-12810341D01*
X12243062Y-12810341D02*
X12233539Y-12819865D01*
X12233539Y-12819865D02*
X12214491Y-12829389D01*
X12214491Y-12829389D02*
X12157348Y-12829389D01*
X12157348Y-12829389D02*
X12138301Y-12819865D01*
X12138301Y-12819865D02*
X12128777Y-12810341D01*
X12347824Y-12829389D02*
X12385920Y-12829389D01*
X12385920Y-12829389D02*
X12404967Y-12819865D01*
X12404967Y-12819865D02*
X12414491Y-12810341D01*
X12414491Y-12810341D02*
X12433539Y-12781770D01*
X12433539Y-12781770D02*
X12443062Y-12743674D01*
X12443062Y-12743674D02*
X12443062Y-12667484D01*
X12443062Y-12667484D02*
X12433539Y-12648436D01*
X12433539Y-12648436D02*
X12424015Y-12638913D01*
X12424015Y-12638913D02*
X12404967Y-12629389D01*
X12404967Y-12629389D02*
X12366872Y-12629389D01*
X12366872Y-12629389D02*
X12347824Y-12638913D01*
X12347824Y-12638913D02*
X12338301Y-12648436D01*
X12338301Y-12648436D02*
X12328777Y-12667484D01*
X12328777Y-12667484D02*
X12328777Y-12715103D01*
X12328777Y-12715103D02*
X12338301Y-12734151D01*
X12338301Y-12734151D02*
X12347824Y-12743674D01*
X12347824Y-12743674D02*
X12366872Y-12753198D01*
X12366872Y-12753198D02*
X12404967Y-12753198D01*
X12404967Y-12753198D02*
X12424015Y-12743674D01*
X12424015Y-12743674D02*
X12433539Y-12734151D01*
X12433539Y-12734151D02*
X12443062Y-12715103D01*
X12614491Y-12696055D02*
X12614491Y-12829389D01*
X12566872Y-12619865D02*
X12519253Y-12762722D01*
X12519253Y-12762722D02*
X12643062Y-12762722D01*
X12709729Y-12629389D02*
X12709729Y-12667484D01*
X12785920Y-12629389D02*
X12785920Y-12667484D01*
X13081158Y-12905579D02*
X13071634Y-12896055D01*
X13071634Y-12896055D02*
X13052586Y-12867484D01*
X13052586Y-12867484D02*
X13043063Y-12848436D01*
X13043063Y-12848436D02*
X13033539Y-12819865D01*
X13033539Y-12819865D02*
X13024015Y-12772246D01*
X13024015Y-12772246D02*
X13024015Y-12734151D01*
X13024015Y-12734151D02*
X13033539Y-12686532D01*
X13033539Y-12686532D02*
X13043063Y-12657960D01*
X13043063Y-12657960D02*
X13052586Y-12638913D01*
X13052586Y-12638913D02*
X13071634Y-12610341D01*
X13071634Y-12610341D02*
X13081158Y-12600817D01*
X13185920Y-12715103D02*
X13166872Y-12705579D01*
X13166872Y-12705579D02*
X13157348Y-12696055D01*
X13157348Y-12696055D02*
X13147824Y-12677008D01*
X13147824Y-12677008D02*
X13147824Y-12667484D01*
X13147824Y-12667484D02*
X13157348Y-12648436D01*
X13157348Y-12648436D02*
X13166872Y-12638913D01*
X13166872Y-12638913D02*
X13185920Y-12629389D01*
X13185920Y-12629389D02*
X13224015Y-12629389D01*
X13224015Y-12629389D02*
X13243063Y-12638913D01*
X13243063Y-12638913D02*
X13252586Y-12648436D01*
X13252586Y-12648436D02*
X13262110Y-12667484D01*
X13262110Y-12667484D02*
X13262110Y-12677008D01*
X13262110Y-12677008D02*
X13252586Y-12696055D01*
X13252586Y-12696055D02*
X13243063Y-12705579D01*
X13243063Y-12705579D02*
X13224015Y-12715103D01*
X13224015Y-12715103D02*
X13185920Y-12715103D01*
X13185920Y-12715103D02*
X13166872Y-12724627D01*
X13166872Y-12724627D02*
X13157348Y-12734151D01*
X13157348Y-12734151D02*
X13147824Y-12753198D01*
X13147824Y-12753198D02*
X13147824Y-12791293D01*
X13147824Y-12791293D02*
X13157348Y-12810341D01*
X13157348Y-12810341D02*
X13166872Y-12819865D01*
X13166872Y-12819865D02*
X13185920Y-12829389D01*
X13185920Y-12829389D02*
X13224015Y-12829389D01*
X13224015Y-12829389D02*
X13243063Y-12819865D01*
X13243063Y-12819865D02*
X13252586Y-12810341D01*
X13252586Y-12810341D02*
X13262110Y-12791293D01*
X13262110Y-12791293D02*
X13262110Y-12753198D01*
X13262110Y-12753198D02*
X13252586Y-12734151D01*
X13252586Y-12734151D02*
X13243063Y-12724627D01*
X13243063Y-12724627D02*
X13224015Y-12715103D01*
X13500205Y-12829389D02*
X13500205Y-12629389D01*
X13585920Y-12829389D02*
X13585920Y-12724627D01*
X13585920Y-12724627D02*
X13576396Y-12705579D01*
X13576396Y-12705579D02*
X13557348Y-12696055D01*
X13557348Y-12696055D02*
X13528777Y-12696055D01*
X13528777Y-12696055D02*
X13509729Y-12705579D01*
X13509729Y-12705579D02*
X13500205Y-12715103D01*
X13709729Y-12829389D02*
X13690682Y-12819865D01*
X13690682Y-12819865D02*
X13681158Y-12810341D01*
X13681158Y-12810341D02*
X13671634Y-12791293D01*
X13671634Y-12791293D02*
X13671634Y-12734151D01*
X13671634Y-12734151D02*
X13681158Y-12715103D01*
X13681158Y-12715103D02*
X13690682Y-12705579D01*
X13690682Y-12705579D02*
X13709729Y-12696055D01*
X13709729Y-12696055D02*
X13738301Y-12696055D01*
X13738301Y-12696055D02*
X13757348Y-12705579D01*
X13757348Y-12705579D02*
X13766872Y-12715103D01*
X13766872Y-12715103D02*
X13776396Y-12734151D01*
X13776396Y-12734151D02*
X13776396Y-12791293D01*
X13776396Y-12791293D02*
X13766872Y-12810341D01*
X13766872Y-12810341D02*
X13757348Y-12819865D01*
X13757348Y-12819865D02*
X13738301Y-12829389D01*
X13738301Y-12829389D02*
X13709729Y-12829389D01*
X13890682Y-12829389D02*
X13871634Y-12819865D01*
X13871634Y-12819865D02*
X13862110Y-12800817D01*
X13862110Y-12800817D02*
X13862110Y-12629389D01*
X14043063Y-12819865D02*
X14024015Y-12829389D01*
X14024015Y-12829389D02*
X13985920Y-12829389D01*
X13985920Y-12829389D02*
X13966872Y-12819865D01*
X13966872Y-12819865D02*
X13957348Y-12800817D01*
X13957348Y-12800817D02*
X13957348Y-12724627D01*
X13957348Y-12724627D02*
X13966872Y-12705579D01*
X13966872Y-12705579D02*
X13985920Y-12696055D01*
X13985920Y-12696055D02*
X14024015Y-12696055D01*
X14024015Y-12696055D02*
X14043063Y-12705579D01*
X14043063Y-12705579D02*
X14052586Y-12724627D01*
X14052586Y-12724627D02*
X14052586Y-12743674D01*
X14052586Y-12743674D02*
X13957348Y-12762722D01*
X14128777Y-12819865D02*
X14147825Y-12829389D01*
X14147825Y-12829389D02*
X14185920Y-12829389D01*
X14185920Y-12829389D02*
X14204967Y-12819865D01*
X14204967Y-12819865D02*
X14214491Y-12800817D01*
X14214491Y-12800817D02*
X14214491Y-12791293D01*
X14214491Y-12791293D02*
X14204967Y-12772246D01*
X14204967Y-12772246D02*
X14185920Y-12762722D01*
X14185920Y-12762722D02*
X14157348Y-12762722D01*
X14157348Y-12762722D02*
X14138301Y-12753198D01*
X14138301Y-12753198D02*
X14128777Y-12734151D01*
X14128777Y-12734151D02*
X14128777Y-12724627D01*
X14128777Y-12724627D02*
X14138301Y-12705579D01*
X14138301Y-12705579D02*
X14157348Y-12696055D01*
X14157348Y-12696055D02*
X14185920Y-12696055D01*
X14185920Y-12696055D02*
X14204967Y-12705579D01*
X14281158Y-12905579D02*
X14290682Y-12896055D01*
X14290682Y-12896055D02*
X14309729Y-12867484D01*
X14309729Y-12867484D02*
X14319253Y-12848436D01*
X14319253Y-12848436D02*
X14328777Y-12819865D01*
X14328777Y-12819865D02*
X14338301Y-12772246D01*
X14338301Y-12772246D02*
X14338301Y-12734151D01*
X14338301Y-12734151D02*
X14328777Y-12686532D01*
X14328777Y-12686532D02*
X14319253Y-12657960D01*
X14319253Y-12657960D02*
X14309729Y-12638913D01*
X14309729Y-12638913D02*
X14290682Y-12610341D01*
X14290682Y-12610341D02*
X14281158Y-12600817D01*
D13*
X9386095Y-12941905D02*
X9506095Y-13061905D01*
X9506095Y-12941905D02*
X9386095Y-13061905D01*
X9506095Y-13001905D02*
G75*
G02*
X9386095Y-13001905I-60000J0D01*
G01*
X9386095Y-13001905D02*
G75*
G02*
X9506095Y-13001905I60000J0D01*
G01*
D11*
X9871634Y-13093389D02*
X9757348Y-13093389D01*
X9814491Y-13093389D02*
X9814491Y-12893389D01*
X9814491Y-12893389D02*
X9795443Y-12921960D01*
X9795443Y-12921960D02*
X9776396Y-12941008D01*
X9776396Y-12941008D02*
X9757348Y-12950532D01*
X9957348Y-13074341D02*
X9966872Y-13083865D01*
X9966872Y-13083865D02*
X9957348Y-13093389D01*
X9957348Y-13093389D02*
X9947824Y-13083865D01*
X9947824Y-13083865D02*
X9957348Y-13074341D01*
X9957348Y-13074341D02*
X9957348Y-13093389D01*
X10043062Y-12912436D02*
X10052586Y-12902913D01*
X10052586Y-12902913D02*
X10071634Y-12893389D01*
X10071634Y-12893389D02*
X10119253Y-12893389D01*
X10119253Y-12893389D02*
X10138300Y-12902913D01*
X10138300Y-12902913D02*
X10147824Y-12912436D01*
X10147824Y-12912436D02*
X10157348Y-12931484D01*
X10157348Y-12931484D02*
X10157348Y-12950532D01*
X10157348Y-12950532D02*
X10147824Y-12979103D01*
X10147824Y-12979103D02*
X10033539Y-13093389D01*
X10033539Y-13093389D02*
X10157348Y-13093389D01*
X10281158Y-12893389D02*
X10300205Y-12893389D01*
X10300205Y-12893389D02*
X10319253Y-12902913D01*
X10319253Y-12902913D02*
X10328777Y-12912436D01*
X10328777Y-12912436D02*
X10338300Y-12931484D01*
X10338300Y-12931484D02*
X10347824Y-12969579D01*
X10347824Y-12969579D02*
X10347824Y-13017198D01*
X10347824Y-13017198D02*
X10338300Y-13055293D01*
X10338300Y-13055293D02*
X10328777Y-13074341D01*
X10328777Y-13074341D02*
X10319253Y-13083865D01*
X10319253Y-13083865D02*
X10300205Y-13093389D01*
X10300205Y-13093389D02*
X10281158Y-13093389D01*
X10281158Y-13093389D02*
X10262110Y-13083865D01*
X10262110Y-13083865D02*
X10252586Y-13074341D01*
X10252586Y-13074341D02*
X10243062Y-13055293D01*
X10243062Y-13055293D02*
X10233539Y-13017198D01*
X10233539Y-13017198D02*
X10233539Y-12969579D01*
X10233539Y-12969579D02*
X10243062Y-12931484D01*
X10243062Y-12931484D02*
X10252586Y-12912436D01*
X10252586Y-12912436D02*
X10262110Y-12902913D01*
X10262110Y-12902913D02*
X10281158Y-12893389D01*
X10471634Y-12893389D02*
X10490681Y-12893389D01*
X10490681Y-12893389D02*
X10509729Y-12902913D01*
X10509729Y-12902913D02*
X10519253Y-12912436D01*
X10519253Y-12912436D02*
X10528777Y-12931484D01*
X10528777Y-12931484D02*
X10538300Y-12969579D01*
X10538300Y-12969579D02*
X10538300Y-13017198D01*
X10538300Y-13017198D02*
X10528777Y-13055293D01*
X10528777Y-13055293D02*
X10519253Y-13074341D01*
X10519253Y-13074341D02*
X10509729Y-13083865D01*
X10509729Y-13083865D02*
X10490681Y-13093389D01*
X10490681Y-13093389D02*
X10471634Y-13093389D01*
X10471634Y-13093389D02*
X10452586Y-13083865D01*
X10452586Y-13083865D02*
X10443062Y-13074341D01*
X10443062Y-13074341D02*
X10433539Y-13055293D01*
X10433539Y-13055293D02*
X10424015Y-13017198D01*
X10424015Y-13017198D02*
X10424015Y-12969579D01*
X10424015Y-12969579D02*
X10433539Y-12931484D01*
X10433539Y-12931484D02*
X10443062Y-12912436D01*
X10443062Y-12912436D02*
X10452586Y-12902913D01*
X10452586Y-12902913D02*
X10471634Y-12893389D01*
X10624015Y-13093389D02*
X10624015Y-12960055D01*
X10624015Y-12979103D02*
X10633539Y-12969579D01*
X10633539Y-12969579D02*
X10652586Y-12960055D01*
X10652586Y-12960055D02*
X10681158Y-12960055D01*
X10681158Y-12960055D02*
X10700205Y-12969579D01*
X10700205Y-12969579D02*
X10709729Y-12988627D01*
X10709729Y-12988627D02*
X10709729Y-13093389D01*
X10709729Y-12988627D02*
X10719253Y-12969579D01*
X10719253Y-12969579D02*
X10738300Y-12960055D01*
X10738300Y-12960055D02*
X10766872Y-12960055D01*
X10766872Y-12960055D02*
X10785920Y-12969579D01*
X10785920Y-12969579D02*
X10795443Y-12988627D01*
X10795443Y-12988627D02*
X10795443Y-13093389D01*
X10890681Y-13093389D02*
X10890681Y-12960055D01*
X10890681Y-12979103D02*
X10900205Y-12969579D01*
X10900205Y-12969579D02*
X10919253Y-12960055D01*
X10919253Y-12960055D02*
X10947824Y-12960055D01*
X10947824Y-12960055D02*
X10966872Y-12969579D01*
X10966872Y-12969579D02*
X10976396Y-12988627D01*
X10976396Y-12988627D02*
X10976396Y-13093389D01*
X10976396Y-12988627D02*
X10985920Y-12969579D01*
X10985920Y-12969579D02*
X11004967Y-12960055D01*
X11004967Y-12960055D02*
X11033539Y-12960055D01*
X11033539Y-12960055D02*
X11052586Y-12969579D01*
X11052586Y-12969579D02*
X11062110Y-12988627D01*
X11062110Y-12988627D02*
X11062110Y-13093389D01*
X11452586Y-12883865D02*
X11281158Y-13141008D01*
X11709729Y-12893389D02*
X11728777Y-12893389D01*
X11728777Y-12893389D02*
X11747824Y-12902913D01*
X11747824Y-12902913D02*
X11757348Y-12912436D01*
X11757348Y-12912436D02*
X11766872Y-12931484D01*
X11766872Y-12931484D02*
X11776396Y-12969579D01*
X11776396Y-12969579D02*
X11776396Y-13017198D01*
X11776396Y-13017198D02*
X11766872Y-13055293D01*
X11766872Y-13055293D02*
X11757348Y-13074341D01*
X11757348Y-13074341D02*
X11747824Y-13083865D01*
X11747824Y-13083865D02*
X11728777Y-13093389D01*
X11728777Y-13093389D02*
X11709729Y-13093389D01*
X11709729Y-13093389D02*
X11690681Y-13083865D01*
X11690681Y-13083865D02*
X11681158Y-13074341D01*
X11681158Y-13074341D02*
X11671634Y-13055293D01*
X11671634Y-13055293D02*
X11662110Y-13017198D01*
X11662110Y-13017198D02*
X11662110Y-12969579D01*
X11662110Y-12969579D02*
X11671634Y-12931484D01*
X11671634Y-12931484D02*
X11681158Y-12912436D01*
X11681158Y-12912436D02*
X11690681Y-12902913D01*
X11690681Y-12902913D02*
X11709729Y-12893389D01*
X11862110Y-13074341D02*
X11871634Y-13083865D01*
X11871634Y-13083865D02*
X11862110Y-13093389D01*
X11862110Y-13093389D02*
X11852586Y-13083865D01*
X11852586Y-13083865D02*
X11862110Y-13074341D01*
X11862110Y-13074341D02*
X11862110Y-13093389D01*
X11995443Y-12893389D02*
X12014491Y-12893389D01*
X12014491Y-12893389D02*
X12033539Y-12902913D01*
X12033539Y-12902913D02*
X12043062Y-12912436D01*
X12043062Y-12912436D02*
X12052586Y-12931484D01*
X12052586Y-12931484D02*
X12062110Y-12969579D01*
X12062110Y-12969579D02*
X12062110Y-13017198D01*
X12062110Y-13017198D02*
X12052586Y-13055293D01*
X12052586Y-13055293D02*
X12043062Y-13074341D01*
X12043062Y-13074341D02*
X12033539Y-13083865D01*
X12033539Y-13083865D02*
X12014491Y-13093389D01*
X12014491Y-13093389D02*
X11995443Y-13093389D01*
X11995443Y-13093389D02*
X11976396Y-13083865D01*
X11976396Y-13083865D02*
X11966872Y-13074341D01*
X11966872Y-13074341D02*
X11957348Y-13055293D01*
X11957348Y-13055293D02*
X11947824Y-13017198D01*
X11947824Y-13017198D02*
X11947824Y-12969579D01*
X11947824Y-12969579D02*
X11957348Y-12931484D01*
X11957348Y-12931484D02*
X11966872Y-12912436D01*
X11966872Y-12912436D02*
X11976396Y-12902913D01*
X11976396Y-12902913D02*
X11995443Y-12893389D01*
X12233539Y-12960055D02*
X12233539Y-13093389D01*
X12185920Y-12883865D02*
X12138301Y-13026722D01*
X12138301Y-13026722D02*
X12262110Y-13026722D01*
X12319253Y-12893389D02*
X12452586Y-12893389D01*
X12452586Y-12893389D02*
X12366872Y-13093389D01*
X12519253Y-12912436D02*
X12528777Y-12902913D01*
X12528777Y-12902913D02*
X12547824Y-12893389D01*
X12547824Y-12893389D02*
X12595443Y-12893389D01*
X12595443Y-12893389D02*
X12614491Y-12902913D01*
X12614491Y-12902913D02*
X12624015Y-12912436D01*
X12624015Y-12912436D02*
X12633539Y-12931484D01*
X12633539Y-12931484D02*
X12633539Y-12950532D01*
X12633539Y-12950532D02*
X12624015Y-12979103D01*
X12624015Y-12979103D02*
X12509729Y-13093389D01*
X12509729Y-13093389D02*
X12633539Y-13093389D01*
X12709729Y-12893389D02*
X12709729Y-12931484D01*
X12785920Y-12893389D02*
X12785920Y-12931484D01*
X13081158Y-13169579D02*
X13071634Y-13160055D01*
X13071634Y-13160055D02*
X13052586Y-13131484D01*
X13052586Y-13131484D02*
X13043063Y-13112436D01*
X13043063Y-13112436D02*
X13033539Y-13083865D01*
X13033539Y-13083865D02*
X13024015Y-13036246D01*
X13024015Y-13036246D02*
X13024015Y-12998151D01*
X13024015Y-12998151D02*
X13033539Y-12950532D01*
X13033539Y-12950532D02*
X13043063Y-12921960D01*
X13043063Y-12921960D02*
X13052586Y-12902913D01*
X13052586Y-12902913D02*
X13071634Y-12874341D01*
X13071634Y-12874341D02*
X13081158Y-12864817D01*
X13138301Y-12893389D02*
X13262110Y-12893389D01*
X13262110Y-12893389D02*
X13195443Y-12969579D01*
X13195443Y-12969579D02*
X13224015Y-12969579D01*
X13224015Y-12969579D02*
X13243063Y-12979103D01*
X13243063Y-12979103D02*
X13252586Y-12988627D01*
X13252586Y-12988627D02*
X13262110Y-13007674D01*
X13262110Y-13007674D02*
X13262110Y-13055293D01*
X13262110Y-13055293D02*
X13252586Y-13074341D01*
X13252586Y-13074341D02*
X13243063Y-13083865D01*
X13243063Y-13083865D02*
X13224015Y-13093389D01*
X13224015Y-13093389D02*
X13166872Y-13093389D01*
X13166872Y-13093389D02*
X13147824Y-13083865D01*
X13147824Y-13083865D02*
X13138301Y-13074341D01*
X13500205Y-13093389D02*
X13500205Y-12893389D01*
X13585920Y-13093389D02*
X13585920Y-12988627D01*
X13585920Y-12988627D02*
X13576396Y-12969579D01*
X13576396Y-12969579D02*
X13557348Y-12960055D01*
X13557348Y-12960055D02*
X13528777Y-12960055D01*
X13528777Y-12960055D02*
X13509729Y-12969579D01*
X13509729Y-12969579D02*
X13500205Y-12979103D01*
X13709729Y-13093389D02*
X13690682Y-13083865D01*
X13690682Y-13083865D02*
X13681158Y-13074341D01*
X13681158Y-13074341D02*
X13671634Y-13055293D01*
X13671634Y-13055293D02*
X13671634Y-12998151D01*
X13671634Y-12998151D02*
X13681158Y-12979103D01*
X13681158Y-12979103D02*
X13690682Y-12969579D01*
X13690682Y-12969579D02*
X13709729Y-12960055D01*
X13709729Y-12960055D02*
X13738301Y-12960055D01*
X13738301Y-12960055D02*
X13757348Y-12969579D01*
X13757348Y-12969579D02*
X13766872Y-12979103D01*
X13766872Y-12979103D02*
X13776396Y-12998151D01*
X13776396Y-12998151D02*
X13776396Y-13055293D01*
X13776396Y-13055293D02*
X13766872Y-13074341D01*
X13766872Y-13074341D02*
X13757348Y-13083865D01*
X13757348Y-13083865D02*
X13738301Y-13093389D01*
X13738301Y-13093389D02*
X13709729Y-13093389D01*
X13890682Y-13093389D02*
X13871634Y-13083865D01*
X13871634Y-13083865D02*
X13862110Y-13064817D01*
X13862110Y-13064817D02*
X13862110Y-12893389D01*
X14043063Y-13083865D02*
X14024015Y-13093389D01*
X14024015Y-13093389D02*
X13985920Y-13093389D01*
X13985920Y-13093389D02*
X13966872Y-13083865D01*
X13966872Y-13083865D02*
X13957348Y-13064817D01*
X13957348Y-13064817D02*
X13957348Y-12988627D01*
X13957348Y-12988627D02*
X13966872Y-12969579D01*
X13966872Y-12969579D02*
X13985920Y-12960055D01*
X13985920Y-12960055D02*
X14024015Y-12960055D01*
X14024015Y-12960055D02*
X14043063Y-12969579D01*
X14043063Y-12969579D02*
X14052586Y-12988627D01*
X14052586Y-12988627D02*
X14052586Y-13007674D01*
X14052586Y-13007674D02*
X13957348Y-13026722D01*
X14128777Y-13083865D02*
X14147825Y-13093389D01*
X14147825Y-13093389D02*
X14185920Y-13093389D01*
X14185920Y-13093389D02*
X14204967Y-13083865D01*
X14204967Y-13083865D02*
X14214491Y-13064817D01*
X14214491Y-13064817D02*
X14214491Y-13055293D01*
X14214491Y-13055293D02*
X14204967Y-13036246D01*
X14204967Y-13036246D02*
X14185920Y-13026722D01*
X14185920Y-13026722D02*
X14157348Y-13026722D01*
X14157348Y-13026722D02*
X14138301Y-13017198D01*
X14138301Y-13017198D02*
X14128777Y-12998151D01*
X14128777Y-12998151D02*
X14128777Y-12988627D01*
X14128777Y-12988627D02*
X14138301Y-12969579D01*
X14138301Y-12969579D02*
X14157348Y-12960055D01*
X14157348Y-12960055D02*
X14185920Y-12960055D01*
X14185920Y-12960055D02*
X14204967Y-12969579D01*
X14281158Y-13169579D02*
X14290682Y-13160055D01*
X14290682Y-13160055D02*
X14309729Y-13131484D01*
X14309729Y-13131484D02*
X14319253Y-13112436D01*
X14319253Y-13112436D02*
X14328777Y-13083865D01*
X14328777Y-13083865D02*
X14338301Y-13036246D01*
X14338301Y-13036246D02*
X14338301Y-12998151D01*
X14338301Y-12998151D02*
X14328777Y-12950532D01*
X14328777Y-12950532D02*
X14319253Y-12921960D01*
X14319253Y-12921960D02*
X14309729Y-12902913D01*
X14309729Y-12902913D02*
X14290682Y-12874341D01*
X14290682Y-12874341D02*
X14281158Y-12864817D01*
X9306095Y-13165905D02*
X9506095Y-13365905D01*
X9506095Y-13165905D02*
X9306095Y-13365905D01*
X9406095Y-13165905D02*
X9406095Y-13365905D01*
X9306095Y-13265905D02*
X9506095Y-13265905D01*
X9747824Y-13157389D02*
X9871634Y-13157389D01*
X9871634Y-13157389D02*
X9804967Y-13233579D01*
X9804967Y-13233579D02*
X9833539Y-13233579D01*
X9833539Y-13233579D02*
X9852586Y-13243103D01*
X9852586Y-13243103D02*
X9862110Y-13252627D01*
X9862110Y-13252627D02*
X9871634Y-13271674D01*
X9871634Y-13271674D02*
X9871634Y-13319293D01*
X9871634Y-13319293D02*
X9862110Y-13338341D01*
X9862110Y-13338341D02*
X9852586Y-13347865D01*
X9852586Y-13347865D02*
X9833539Y-13357389D01*
X9833539Y-13357389D02*
X9776396Y-13357389D01*
X9776396Y-13357389D02*
X9757348Y-13347865D01*
X9757348Y-13347865D02*
X9747824Y-13338341D01*
X9957348Y-13338341D02*
X9966872Y-13347865D01*
X9966872Y-13347865D02*
X9957348Y-13357389D01*
X9957348Y-13357389D02*
X9947824Y-13347865D01*
X9947824Y-13347865D02*
X9957348Y-13338341D01*
X9957348Y-13338341D02*
X9957348Y-13357389D01*
X10147824Y-13157389D02*
X10052586Y-13157389D01*
X10052586Y-13157389D02*
X10043062Y-13252627D01*
X10043062Y-13252627D02*
X10052586Y-13243103D01*
X10052586Y-13243103D02*
X10071634Y-13233579D01*
X10071634Y-13233579D02*
X10119253Y-13233579D01*
X10119253Y-13233579D02*
X10138300Y-13243103D01*
X10138300Y-13243103D02*
X10147824Y-13252627D01*
X10147824Y-13252627D02*
X10157348Y-13271674D01*
X10157348Y-13271674D02*
X10157348Y-13319293D01*
X10157348Y-13319293D02*
X10147824Y-13338341D01*
X10147824Y-13338341D02*
X10138300Y-13347865D01*
X10138300Y-13347865D02*
X10119253Y-13357389D01*
X10119253Y-13357389D02*
X10071634Y-13357389D01*
X10071634Y-13357389D02*
X10052586Y-13347865D01*
X10052586Y-13347865D02*
X10043062Y-13338341D01*
X10281158Y-13157389D02*
X10300205Y-13157389D01*
X10300205Y-13157389D02*
X10319253Y-13166913D01*
X10319253Y-13166913D02*
X10328777Y-13176436D01*
X10328777Y-13176436D02*
X10338300Y-13195484D01*
X10338300Y-13195484D02*
X10347824Y-13233579D01*
X10347824Y-13233579D02*
X10347824Y-13281198D01*
X10347824Y-13281198D02*
X10338300Y-13319293D01*
X10338300Y-13319293D02*
X10328777Y-13338341D01*
X10328777Y-13338341D02*
X10319253Y-13347865D01*
X10319253Y-13347865D02*
X10300205Y-13357389D01*
X10300205Y-13357389D02*
X10281158Y-13357389D01*
X10281158Y-13357389D02*
X10262110Y-13347865D01*
X10262110Y-13347865D02*
X10252586Y-13338341D01*
X10252586Y-13338341D02*
X10243062Y-13319293D01*
X10243062Y-13319293D02*
X10233539Y-13281198D01*
X10233539Y-13281198D02*
X10233539Y-13233579D01*
X10233539Y-13233579D02*
X10243062Y-13195484D01*
X10243062Y-13195484D02*
X10252586Y-13176436D01*
X10252586Y-13176436D02*
X10262110Y-13166913D01*
X10262110Y-13166913D02*
X10281158Y-13157389D01*
X10471634Y-13157389D02*
X10490681Y-13157389D01*
X10490681Y-13157389D02*
X10509729Y-13166913D01*
X10509729Y-13166913D02*
X10519253Y-13176436D01*
X10519253Y-13176436D02*
X10528777Y-13195484D01*
X10528777Y-13195484D02*
X10538300Y-13233579D01*
X10538300Y-13233579D02*
X10538300Y-13281198D01*
X10538300Y-13281198D02*
X10528777Y-13319293D01*
X10528777Y-13319293D02*
X10519253Y-13338341D01*
X10519253Y-13338341D02*
X10509729Y-13347865D01*
X10509729Y-13347865D02*
X10490681Y-13357389D01*
X10490681Y-13357389D02*
X10471634Y-13357389D01*
X10471634Y-13357389D02*
X10452586Y-13347865D01*
X10452586Y-13347865D02*
X10443062Y-13338341D01*
X10443062Y-13338341D02*
X10433539Y-13319293D01*
X10433539Y-13319293D02*
X10424015Y-13281198D01*
X10424015Y-13281198D02*
X10424015Y-13233579D01*
X10424015Y-13233579D02*
X10433539Y-13195484D01*
X10433539Y-13195484D02*
X10443062Y-13176436D01*
X10443062Y-13176436D02*
X10452586Y-13166913D01*
X10452586Y-13166913D02*
X10471634Y-13157389D01*
X10624015Y-13357389D02*
X10624015Y-13224055D01*
X10624015Y-13243103D02*
X10633539Y-13233579D01*
X10633539Y-13233579D02*
X10652586Y-13224055D01*
X10652586Y-13224055D02*
X10681158Y-13224055D01*
X10681158Y-13224055D02*
X10700205Y-13233579D01*
X10700205Y-13233579D02*
X10709729Y-13252627D01*
X10709729Y-13252627D02*
X10709729Y-13357389D01*
X10709729Y-13252627D02*
X10719253Y-13233579D01*
X10719253Y-13233579D02*
X10738300Y-13224055D01*
X10738300Y-13224055D02*
X10766872Y-13224055D01*
X10766872Y-13224055D02*
X10785920Y-13233579D01*
X10785920Y-13233579D02*
X10795443Y-13252627D01*
X10795443Y-13252627D02*
X10795443Y-13357389D01*
X10890681Y-13357389D02*
X10890681Y-13224055D01*
X10890681Y-13243103D02*
X10900205Y-13233579D01*
X10900205Y-13233579D02*
X10919253Y-13224055D01*
X10919253Y-13224055D02*
X10947824Y-13224055D01*
X10947824Y-13224055D02*
X10966872Y-13233579D01*
X10966872Y-13233579D02*
X10976396Y-13252627D01*
X10976396Y-13252627D02*
X10976396Y-13357389D01*
X10976396Y-13252627D02*
X10985920Y-13233579D01*
X10985920Y-13233579D02*
X11004967Y-13224055D01*
X11004967Y-13224055D02*
X11033539Y-13224055D01*
X11033539Y-13224055D02*
X11052586Y-13233579D01*
X11052586Y-13233579D02*
X11062110Y-13252627D01*
X11062110Y-13252627D02*
X11062110Y-13357389D01*
X11452586Y-13147865D02*
X11281158Y-13405008D01*
X11709729Y-13157389D02*
X11728777Y-13157389D01*
X11728777Y-13157389D02*
X11747824Y-13166913D01*
X11747824Y-13166913D02*
X11757348Y-13176436D01*
X11757348Y-13176436D02*
X11766872Y-13195484D01*
X11766872Y-13195484D02*
X11776396Y-13233579D01*
X11776396Y-13233579D02*
X11776396Y-13281198D01*
X11776396Y-13281198D02*
X11766872Y-13319293D01*
X11766872Y-13319293D02*
X11757348Y-13338341D01*
X11757348Y-13338341D02*
X11747824Y-13347865D01*
X11747824Y-13347865D02*
X11728777Y-13357389D01*
X11728777Y-13357389D02*
X11709729Y-13357389D01*
X11709729Y-13357389D02*
X11690681Y-13347865D01*
X11690681Y-13347865D02*
X11681158Y-13338341D01*
X11681158Y-13338341D02*
X11671634Y-13319293D01*
X11671634Y-13319293D02*
X11662110Y-13281198D01*
X11662110Y-13281198D02*
X11662110Y-13233579D01*
X11662110Y-13233579D02*
X11671634Y-13195484D01*
X11671634Y-13195484D02*
X11681158Y-13176436D01*
X11681158Y-13176436D02*
X11690681Y-13166913D01*
X11690681Y-13166913D02*
X11709729Y-13157389D01*
X11862110Y-13338341D02*
X11871634Y-13347865D01*
X11871634Y-13347865D02*
X11862110Y-13357389D01*
X11862110Y-13357389D02*
X11852586Y-13347865D01*
X11852586Y-13347865D02*
X11862110Y-13338341D01*
X11862110Y-13338341D02*
X11862110Y-13357389D01*
X12062110Y-13357389D02*
X11947824Y-13357389D01*
X12004967Y-13357389D02*
X12004967Y-13157389D01*
X12004967Y-13157389D02*
X11985920Y-13185960D01*
X11985920Y-13185960D02*
X11966872Y-13205008D01*
X11966872Y-13205008D02*
X11947824Y-13214532D01*
X12128777Y-13157389D02*
X12252586Y-13157389D01*
X12252586Y-13157389D02*
X12185920Y-13233579D01*
X12185920Y-13233579D02*
X12214491Y-13233579D01*
X12214491Y-13233579D02*
X12233539Y-13243103D01*
X12233539Y-13243103D02*
X12243062Y-13252627D01*
X12243062Y-13252627D02*
X12252586Y-13271674D01*
X12252586Y-13271674D02*
X12252586Y-13319293D01*
X12252586Y-13319293D02*
X12243062Y-13338341D01*
X12243062Y-13338341D02*
X12233539Y-13347865D01*
X12233539Y-13347865D02*
X12214491Y-13357389D01*
X12214491Y-13357389D02*
X12157348Y-13357389D01*
X12157348Y-13357389D02*
X12138301Y-13347865D01*
X12138301Y-13347865D02*
X12128777Y-13338341D01*
X12319253Y-13157389D02*
X12452586Y-13157389D01*
X12452586Y-13157389D02*
X12366872Y-13357389D01*
X12557348Y-13243103D02*
X12538301Y-13233579D01*
X12538301Y-13233579D02*
X12528777Y-13224055D01*
X12528777Y-13224055D02*
X12519253Y-13205008D01*
X12519253Y-13205008D02*
X12519253Y-13195484D01*
X12519253Y-13195484D02*
X12528777Y-13176436D01*
X12528777Y-13176436D02*
X12538301Y-13166913D01*
X12538301Y-13166913D02*
X12557348Y-13157389D01*
X12557348Y-13157389D02*
X12595443Y-13157389D01*
X12595443Y-13157389D02*
X12614491Y-13166913D01*
X12614491Y-13166913D02*
X12624015Y-13176436D01*
X12624015Y-13176436D02*
X12633539Y-13195484D01*
X12633539Y-13195484D02*
X12633539Y-13205008D01*
X12633539Y-13205008D02*
X12624015Y-13224055D01*
X12624015Y-13224055D02*
X12614491Y-13233579D01*
X12614491Y-13233579D02*
X12595443Y-13243103D01*
X12595443Y-13243103D02*
X12557348Y-13243103D01*
X12557348Y-13243103D02*
X12538301Y-13252627D01*
X12538301Y-13252627D02*
X12528777Y-13262151D01*
X12528777Y-13262151D02*
X12519253Y-13281198D01*
X12519253Y-13281198D02*
X12519253Y-13319293D01*
X12519253Y-13319293D02*
X12528777Y-13338341D01*
X12528777Y-13338341D02*
X12538301Y-13347865D01*
X12538301Y-13347865D02*
X12557348Y-13357389D01*
X12557348Y-13357389D02*
X12595443Y-13357389D01*
X12595443Y-13357389D02*
X12614491Y-13347865D01*
X12614491Y-13347865D02*
X12624015Y-13338341D01*
X12624015Y-13338341D02*
X12633539Y-13319293D01*
X12633539Y-13319293D02*
X12633539Y-13281198D01*
X12633539Y-13281198D02*
X12624015Y-13262151D01*
X12624015Y-13262151D02*
X12614491Y-13252627D01*
X12614491Y-13252627D02*
X12595443Y-13243103D01*
X12709729Y-13157389D02*
X12709729Y-13195484D01*
X12785920Y-13157389D02*
X12785920Y-13195484D01*
X13081158Y-13433579D02*
X13071634Y-13424055D01*
X13071634Y-13424055D02*
X13052586Y-13395484D01*
X13052586Y-13395484D02*
X13043063Y-13376436D01*
X13043063Y-13376436D02*
X13033539Y-13347865D01*
X13033539Y-13347865D02*
X13024015Y-13300246D01*
X13024015Y-13300246D02*
X13024015Y-13262151D01*
X13024015Y-13262151D02*
X13033539Y-13214532D01*
X13033539Y-13214532D02*
X13043063Y-13185960D01*
X13043063Y-13185960D02*
X13052586Y-13166913D01*
X13052586Y-13166913D02*
X13071634Y-13138341D01*
X13071634Y-13138341D02*
X13081158Y-13128817D01*
X13147824Y-13176436D02*
X13157348Y-13166913D01*
X13157348Y-13166913D02*
X13176396Y-13157389D01*
X13176396Y-13157389D02*
X13224015Y-13157389D01*
X13224015Y-13157389D02*
X13243063Y-13166913D01*
X13243063Y-13166913D02*
X13252586Y-13176436D01*
X13252586Y-13176436D02*
X13262110Y-13195484D01*
X13262110Y-13195484D02*
X13262110Y-13214532D01*
X13262110Y-13214532D02*
X13252586Y-13243103D01*
X13252586Y-13243103D02*
X13138301Y-13357389D01*
X13138301Y-13357389D02*
X13262110Y-13357389D01*
X13500205Y-13357389D02*
X13500205Y-13157389D01*
X13585920Y-13357389D02*
X13585920Y-13252627D01*
X13585920Y-13252627D02*
X13576396Y-13233579D01*
X13576396Y-13233579D02*
X13557348Y-13224055D01*
X13557348Y-13224055D02*
X13528777Y-13224055D01*
X13528777Y-13224055D02*
X13509729Y-13233579D01*
X13509729Y-13233579D02*
X13500205Y-13243103D01*
X13709729Y-13357389D02*
X13690682Y-13347865D01*
X13690682Y-13347865D02*
X13681158Y-13338341D01*
X13681158Y-13338341D02*
X13671634Y-13319293D01*
X13671634Y-13319293D02*
X13671634Y-13262151D01*
X13671634Y-13262151D02*
X13681158Y-13243103D01*
X13681158Y-13243103D02*
X13690682Y-13233579D01*
X13690682Y-13233579D02*
X13709729Y-13224055D01*
X13709729Y-13224055D02*
X13738301Y-13224055D01*
X13738301Y-13224055D02*
X13757348Y-13233579D01*
X13757348Y-13233579D02*
X13766872Y-13243103D01*
X13766872Y-13243103D02*
X13776396Y-13262151D01*
X13776396Y-13262151D02*
X13776396Y-13319293D01*
X13776396Y-13319293D02*
X13766872Y-13338341D01*
X13766872Y-13338341D02*
X13757348Y-13347865D01*
X13757348Y-13347865D02*
X13738301Y-13357389D01*
X13738301Y-13357389D02*
X13709729Y-13357389D01*
X13890682Y-13357389D02*
X13871634Y-13347865D01*
X13871634Y-13347865D02*
X13862110Y-13328817D01*
X13862110Y-13328817D02*
X13862110Y-13157389D01*
X14043063Y-13347865D02*
X14024015Y-13357389D01*
X14024015Y-13357389D02*
X13985920Y-13357389D01*
X13985920Y-13357389D02*
X13966872Y-13347865D01*
X13966872Y-13347865D02*
X13957348Y-13328817D01*
X13957348Y-13328817D02*
X13957348Y-13252627D01*
X13957348Y-13252627D02*
X13966872Y-13233579D01*
X13966872Y-13233579D02*
X13985920Y-13224055D01*
X13985920Y-13224055D02*
X14024015Y-13224055D01*
X14024015Y-13224055D02*
X14043063Y-13233579D01*
X14043063Y-13233579D02*
X14052586Y-13252627D01*
X14052586Y-13252627D02*
X14052586Y-13271674D01*
X14052586Y-13271674D02*
X13957348Y-13290722D01*
X14128777Y-13347865D02*
X14147825Y-13357389D01*
X14147825Y-13357389D02*
X14185920Y-13357389D01*
X14185920Y-13357389D02*
X14204967Y-13347865D01*
X14204967Y-13347865D02*
X14214491Y-13328817D01*
X14214491Y-13328817D02*
X14214491Y-13319293D01*
X14214491Y-13319293D02*
X14204967Y-13300246D01*
X14204967Y-13300246D02*
X14185920Y-13290722D01*
X14185920Y-13290722D02*
X14157348Y-13290722D01*
X14157348Y-13290722D02*
X14138301Y-13281198D01*
X14138301Y-13281198D02*
X14128777Y-13262151D01*
X14128777Y-13262151D02*
X14128777Y-13252627D01*
X14128777Y-13252627D02*
X14138301Y-13233579D01*
X14138301Y-13233579D02*
X14157348Y-13224055D01*
X14157348Y-13224055D02*
X14185920Y-13224055D01*
X14185920Y-13224055D02*
X14204967Y-13233579D01*
X14281158Y-13433579D02*
X14290682Y-13424055D01*
X14290682Y-13424055D02*
X14309729Y-13395484D01*
X14309729Y-13395484D02*
X14319253Y-13376436D01*
X14319253Y-13376436D02*
X14328777Y-13347865D01*
X14328777Y-13347865D02*
X14338301Y-13300246D01*
X14338301Y-13300246D02*
X14338301Y-13262151D01*
X14338301Y-13262151D02*
X14328777Y-13214532D01*
X14328777Y-13214532D02*
X14319253Y-13185960D01*
X14319253Y-13185960D02*
X14309729Y-13166913D01*
X14309729Y-13166913D02*
X14290682Y-13138341D01*
X14290682Y-13138341D02*
X14281158Y-13128817D01*
M02*
