%TF.GenerationSoftware,KiCad,Pcbnew,9.0.2-9.0.2-0~ubuntu24.04.1*%
%TF.CreationDate,2025-05-09T21:26:21+01:00*%
%TF.ProjectId,can-bus-kicad,63616e2d-6275-4732-9d6b-696361642e6b,rev?*%
%TF.SameCoordinates,Original*%
%TF.FileFunction,Drillmap*%
%TF.FilePolarity,Positive*%
%FSLAX45Y45*%
G04 Gerber Fmt 4.5, Leading zero omitted, Abs format (unit mm)*
G04 Created by KiCad (PCBNEW 9.0.2-9.0.2-0~ubuntu24.04.1) date 2025-05-09 21:26:21*
%MOMM*%
%LPD*%
G01*
G04 APERTURE LIST*
%ADD10C,0.038100*%
%ADD11C,0.200000*%
G04 APERTURE END LIST*
D10*
X9508000Y-6840000D02*
X14308000Y-6840000D01*
X14308000Y-11040000D01*
X9508000Y-11040000D01*
X9508000Y-6840000D01*
D11*
X9766872Y-11353389D02*
X9766872Y-11153389D01*
X9766872Y-11153389D02*
X9814491Y-11153389D01*
X9814491Y-11153389D02*
X9843062Y-11162913D01*
X9843062Y-11162913D02*
X9862110Y-11181960D01*
X9862110Y-11181960D02*
X9871634Y-11201008D01*
X9871634Y-11201008D02*
X9881158Y-11239103D01*
X9881158Y-11239103D02*
X9881158Y-11267674D01*
X9881158Y-11267674D02*
X9871634Y-11305770D01*
X9871634Y-11305770D02*
X9862110Y-11324817D01*
X9862110Y-11324817D02*
X9843062Y-11343865D01*
X9843062Y-11343865D02*
X9814491Y-11353389D01*
X9814491Y-11353389D02*
X9766872Y-11353389D01*
X9966872Y-11353389D02*
X9966872Y-11220055D01*
X9966872Y-11258151D02*
X9976396Y-11239103D01*
X9976396Y-11239103D02*
X9985919Y-11229579D01*
X9985919Y-11229579D02*
X10004967Y-11220055D01*
X10004967Y-11220055D02*
X10024015Y-11220055D01*
X10090681Y-11353389D02*
X10090681Y-11220055D01*
X10090681Y-11153389D02*
X10081158Y-11162913D01*
X10081158Y-11162913D02*
X10090681Y-11172436D01*
X10090681Y-11172436D02*
X10100205Y-11162913D01*
X10100205Y-11162913D02*
X10090681Y-11153389D01*
X10090681Y-11153389D02*
X10090681Y-11172436D01*
X10214491Y-11353389D02*
X10195443Y-11343865D01*
X10195443Y-11343865D02*
X10185919Y-11324817D01*
X10185919Y-11324817D02*
X10185919Y-11153389D01*
X10319253Y-11353389D02*
X10300205Y-11343865D01*
X10300205Y-11343865D02*
X10290681Y-11324817D01*
X10290681Y-11324817D02*
X10290681Y-11153389D01*
X10547824Y-11353389D02*
X10547824Y-11153389D01*
X10547824Y-11153389D02*
X10614491Y-11296246D01*
X10614491Y-11296246D02*
X10681158Y-11153389D01*
X10681158Y-11153389D02*
X10681158Y-11353389D01*
X10862110Y-11353389D02*
X10862110Y-11248627D01*
X10862110Y-11248627D02*
X10852586Y-11229579D01*
X10852586Y-11229579D02*
X10833539Y-11220055D01*
X10833539Y-11220055D02*
X10795443Y-11220055D01*
X10795443Y-11220055D02*
X10776396Y-11229579D01*
X10862110Y-11343865D02*
X10843062Y-11353389D01*
X10843062Y-11353389D02*
X10795443Y-11353389D01*
X10795443Y-11353389D02*
X10776396Y-11343865D01*
X10776396Y-11343865D02*
X10766872Y-11324817D01*
X10766872Y-11324817D02*
X10766872Y-11305770D01*
X10766872Y-11305770D02*
X10776396Y-11286722D01*
X10776396Y-11286722D02*
X10795443Y-11277198D01*
X10795443Y-11277198D02*
X10843062Y-11277198D01*
X10843062Y-11277198D02*
X10862110Y-11267674D01*
X10957348Y-11220055D02*
X10957348Y-11420055D01*
X10957348Y-11229579D02*
X10976396Y-11220055D01*
X10976396Y-11220055D02*
X11014491Y-11220055D01*
X11014491Y-11220055D02*
X11033539Y-11229579D01*
X11033539Y-11229579D02*
X11043062Y-11239103D01*
X11043062Y-11239103D02*
X11052586Y-11258151D01*
X11052586Y-11258151D02*
X11052586Y-11315293D01*
X11052586Y-11315293D02*
X11043062Y-11334341D01*
X11043062Y-11334341D02*
X11033539Y-11343865D01*
X11033539Y-11343865D02*
X11014491Y-11353389D01*
X11014491Y-11353389D02*
X10976396Y-11353389D01*
X10976396Y-11353389D02*
X10957348Y-11343865D01*
X11138300Y-11334341D02*
X11147824Y-11343865D01*
X11147824Y-11343865D02*
X11138300Y-11353389D01*
X11138300Y-11353389D02*
X11128777Y-11343865D01*
X11128777Y-11343865D02*
X11138300Y-11334341D01*
X11138300Y-11334341D02*
X11138300Y-11353389D01*
X11138300Y-11229579D02*
X11147824Y-11239103D01*
X11147824Y-11239103D02*
X11138300Y-11248627D01*
X11138300Y-11248627D02*
X11128777Y-11239103D01*
X11128777Y-11239103D02*
X11138300Y-11229579D01*
X11138300Y-11229579D02*
X11138300Y-11248627D01*
M02*
