M48
; DRILL file {KiCad 9.0.2-9.0.2-0~ubuntu24.04.1} date 2025-05-09T21:26:21+0100
; FORMAT={-:-/ absolute / metric / decimal}
; #@! TF.CreationDate,2025-05-09T21:26:21+01:00
; #@! TF.GenerationSoftware,Kicad,Pcbnew,9.0.2-9.0.2-0~ubuntu24.04.1
; #@! TF.FileFunction,Plated,1,2,PTH
FMAT,2
METRIC
; #@! TA.AperFunction,Plated,PTH,ViaDrill
T1C0.300
; #@! TA.AperFunction,Plated,PTH,ComponentDrill
T2C0.500
; #@! TA.AperFunction,Plated,PTH,ComponentDrill
T3C0.900
; #@! TA.AperFunction,Plated,PTH,ComponentDrill
T4C0.950
; #@! TA.AperFunction,Plated,PTH,ComponentDrill
T5C1.000
; #@! TA.AperFunction,Plated,PTH,ComponentDrill
T6C1.200
; #@! TA.AperFunction,Plated,PTH,ComponentDrill
T7C3.500
%
G90
G05
T1
X110.2Y-87.4
X110.4Y-80.4
X110.4Y-83.6
X110.4Y-91.4
X110.4Y-95.0
X114.4Y-87.4
X118.2Y-95.4
X125.4Y-92.0
X126.6Y-89.2
X128.6Y-79.4
X128.9Y-83.9
X131.0Y-96.4
X131.4Y-79.4
X131.7Y-86.6
X132.8Y-99.3
X134.8Y-79.4
X135.0Y-93.6
X136.2Y-93.0
X138.7Y-93.1
X141.4Y-80.5
X141.5Y-93.2
T2
X97.69Y-105.65
X98.459Y-103.794
X98.459Y-107.506
X100.315Y-103.025
X100.315Y-108.275
X102.171Y-103.794
X102.171Y-107.506
X102.94Y-105.65
X136.005Y-74.135
X136.774Y-72.279
X136.774Y-75.991
X138.63Y-71.51
X138.63Y-76.76
X140.486Y-72.279
X140.486Y-75.991
X141.255Y-74.135
T3
X107.06Y-79.41
X107.06Y-81.95
X107.06Y-84.49
X107.06Y-87.03
X107.06Y-89.57
X107.06Y-92.11
X107.06Y-94.65
X107.06Y-97.19
X122.3Y-79.41
X122.3Y-81.95
X122.3Y-84.49
X122.3Y-87.03
X122.3Y-89.57
X122.3Y-92.11
X122.3Y-94.65
X122.3Y-97.19
T4
X101.21Y-80.33
X101.21Y-82.83
X101.21Y-85.33
X101.21Y-87.83
X109.2Y-105.1
X111.7Y-105.1
X114.2Y-105.1
X116.7Y-105.1
T5
X101.25Y-94.5
X101.25Y-97.0
X102.25Y-72.75
X104.75Y-72.75
X122.75Y-72.75
X123.8Y-105.7
X125.25Y-72.75
X126.3Y-105.7
T6
X133.96Y-104.0
X136.5Y-104.0
X139.04Y-104.0
T7
X100.315Y-105.65
X138.63Y-74.135
M30
