G04 #@! TF.GenerationSoftware,KiCad,Pcbnew,9.0.2-9.0.2-0~ubuntu24.04.1*
G04 #@! TF.CreationDate,2025-05-09T21:26:21+01:00*
G04 #@! TF.ProjectId,can-bus-kicad,63616e2d-6275-4732-9d6b-696361642e6b,rev?*
G04 #@! TF.SameCoordinates,Original*
G04 #@! TF.FileFunction,Soldermask,Top*
G04 #@! TF.FilePolarity,Negative*
%FSLAX46Y46*%
G04 Gerber Fmt 4.6, Leading zero omitted, Abs format (unit mm)*
G04 Created by KiCad (PCBNEW 9.0.2-9.0.2-0~ubuntu24.04.1) date 2025-05-09 21:26:21*
%MOMM*%
%LPD*%
G01*
G04 APERTURE LIST*
G04 Aperture macros list*
%AMRoundRect*
0 Rectangle with rounded corners*
0 $1 Rounding radius*
0 $2 $3 $4 $5 $6 $7 $8 $9 X,Y pos of 4 corners*
0 Add a 4 corners polygon primitive as box body*
4,1,4,$2,$3,$4,$5,$6,$7,$8,$9,$2,$3,0*
0 Add four circle primitives for the rounded corners*
1,1,$1+$1,$2,$3*
1,1,$1+$1,$4,$5*
1,1,$1+$1,$6,$7*
1,1,$1+$1,$8,$9*
0 Add four rect primitives between the rounded corners*
20,1,$1+$1,$2,$3,$4,$5,0*
20,1,$1+$1,$4,$5,$6,$7,0*
20,1,$1+$1,$6,$7,$8,$9,0*
20,1,$1+$1,$8,$9,$2,$3,0*%
%AMFreePoly0*
4,1,6,1.000000,0.000000,0.500000,-0.750000,-0.500000,-0.750000,-0.500000,0.750000,0.500000,0.750000,1.000000,0.000000,1.000000,0.000000,$1*%
%AMFreePoly1*
4,1,6,0.500000,-0.750000,-0.650000,-0.750000,-0.150000,0.000000,-0.650000,0.750000,0.500000,0.750000,0.500000,-0.750000,0.500000,-0.750000,$1*%
G04 Aperture macros list end*
%ADD10RoundRect,0.250000X0.725000X-0.600000X0.725000X0.600000X-0.725000X0.600000X-0.725000X-0.600000X0*%
%ADD11O,1.950000X1.700000*%
%ADD12RoundRect,0.250000X0.400000X0.625000X-0.400000X0.625000X-0.400000X-0.625000X0.400000X-0.625000X0*%
%ADD13RoundRect,0.250000X-0.600000X-0.725000X0.600000X-0.725000X0.600000X0.725000X-0.600000X0.725000X0*%
%ADD14O,1.700000X1.950000*%
%ADD15RoundRect,0.250000X-0.600000X-0.750000X0.600000X-0.750000X0.600000X0.750000X-0.600000X0.750000X0*%
%ADD16O,1.700000X2.000000*%
%ADD17C,0.800000*%
%ADD18C,7.000000*%
%ADD19R,1.803400X1.600200*%
%ADD20FreePoly0,270.000000*%
%ADD21FreePoly1,270.000000*%
%ADD22R,2.000000X2.000000*%
%ADD23C,2.000000*%
%ADD24R,1.000000X2.000000*%
%ADD25RoundRect,0.250000X0.600000X0.750000X-0.600000X0.750000X-0.600000X-0.750000X0.600000X-0.750000X0*%
%ADD26R,1.600200X1.803400*%
%ADD27RoundRect,0.250000X-0.400000X-0.625000X0.400000X-0.625000X0.400000X0.625000X-0.400000X0.625000X0*%
%ADD28C,1.804000*%
%ADD29RoundRect,0.250000X0.412500X0.650000X-0.412500X0.650000X-0.412500X-0.650000X0.412500X-0.650000X0*%
%ADD30FreePoly0,90.000000*%
%ADD31FreePoly1,90.000000*%
%ADD32RoundRect,0.250000X0.750000X-0.600000X0.750000X0.600000X-0.750000X0.600000X-0.750000X-0.600000X0*%
%ADD33O,2.000000X1.700000*%
%ADD34RoundRect,0.150000X-0.825000X-0.150000X0.825000X-0.150000X0.825000X0.150000X-0.825000X0.150000X0*%
%ADD35RoundRect,0.250001X1.044999X-0.872499X1.044999X0.872499X-1.044999X0.872499X-1.044999X-0.872499X0*%
G04 APERTURE END LIST*
D10*
G04 #@! TO.C,J6*
X101210000Y-87830000D03*
D11*
X101210000Y-85330000D03*
X101210000Y-82830000D03*
X101210000Y-80330000D03*
G04 #@! TD*
D12*
G04 #@! TO.C,R6*
X133350000Y-84800000D03*
X130250000Y-84800000D03*
G04 #@! TD*
D13*
G04 #@! TO.C,J4*
X109200000Y-105100000D03*
D14*
X111700000Y-105100000D03*
X114200000Y-105100000D03*
X116700000Y-105100000D03*
G04 #@! TD*
D15*
G04 #@! TO.C,J3*
X102250000Y-72750000D03*
D16*
X104750000Y-72750000D03*
G04 #@! TD*
D17*
G04 #@! TO.C,H1*
X136005000Y-74135000D03*
X136773845Y-72278845D03*
X136773845Y-75991155D03*
X138630000Y-71510000D03*
D18*
X138630000Y-74135000D03*
D17*
X138630000Y-76760000D03*
X140486155Y-72278845D03*
X140486155Y-75991155D03*
X141255000Y-74135000D03*
G04 #@! TD*
D19*
G04 #@! TO.C,D1*
X133216100Y-81700000D03*
X129583900Y-81700000D03*
G04 #@! TD*
D12*
G04 #@! TO.C,R1*
X139950000Y-98600000D03*
X136850000Y-98600000D03*
G04 #@! TD*
D20*
G04 #@! TO.C,JP3*
X140400000Y-85000000D03*
D21*
X140400000Y-86450000D03*
G04 #@! TD*
D12*
G04 #@! TO.C,R3*
X115880000Y-89500000D03*
X112780000Y-89500000D03*
G04 #@! TD*
D22*
G04 #@! TO.C,J2*
X133960000Y-104000000D03*
D23*
X136500000Y-104000000D03*
X139040000Y-104000000D03*
G04 #@! TD*
D12*
G04 #@! TO.C,R5*
X116000000Y-97750000D03*
X112900000Y-97750000D03*
G04 #@! TD*
D24*
G04 #@! TO.C,IND1*
X140000000Y-82300000D03*
X137300000Y-82400000D03*
X137300000Y-90500000D03*
X140000000Y-90500000D03*
G04 #@! TD*
D15*
G04 #@! TO.C,J1*
X122750000Y-72750000D03*
D16*
X125250000Y-72750000D03*
G04 #@! TD*
D17*
G04 #@! TO.C,H2*
X97690000Y-105650000D03*
X98458845Y-103793845D03*
X98458845Y-107506155D03*
X100315000Y-103025000D03*
D18*
X100315000Y-105650000D03*
D17*
X100315000Y-108275000D03*
X102171155Y-103793845D03*
X102171155Y-107506155D03*
X102940000Y-105650000D03*
G04 #@! TD*
D25*
G04 #@! TO.C,J5*
X126300000Y-105700000D03*
D16*
X123800000Y-105700000D03*
G04 #@! TD*
D26*
G04 #@! TO.C,D2*
X126300000Y-83516100D03*
X126300000Y-79883900D03*
G04 #@! TD*
D27*
G04 #@! TO.C,R4*
X112870000Y-93800000D03*
X115970000Y-93800000D03*
G04 #@! TD*
D28*
G04 #@! TO.C,U1*
X122300000Y-97190000D03*
X122300000Y-94650000D03*
X122300000Y-92110000D03*
X122300000Y-89570000D03*
X122300000Y-84490000D03*
X122300000Y-87030000D03*
X107060000Y-79410000D03*
X122300000Y-79410000D03*
X107060000Y-81950000D03*
X107060000Y-84490000D03*
X107060000Y-87030000D03*
X107060000Y-89570000D03*
X107060000Y-92110000D03*
X107060000Y-94650000D03*
X107060000Y-97190000D03*
X122300000Y-81950000D03*
G04 #@! TD*
D29*
G04 #@! TO.C,C2*
X132562500Y-95000000D03*
X129437500Y-95000000D03*
G04 #@! TD*
D30*
G04 #@! TO.C,JP1*
X137550000Y-96270000D03*
D31*
X137550000Y-94820000D03*
G04 #@! TD*
D32*
G04 #@! TO.C,J7*
X101250000Y-97000000D03*
D33*
X101250000Y-94500000D03*
G04 #@! TD*
D34*
G04 #@! TO.C,U3*
X128670000Y-88080000D03*
X128670000Y-89350000D03*
X128670000Y-90620000D03*
X128670000Y-91890000D03*
X133620000Y-91890000D03*
X133620000Y-90620000D03*
X133620000Y-89350000D03*
X133620000Y-88080000D03*
G04 #@! TD*
D12*
G04 #@! TO.C,R2*
X115880000Y-85620000D03*
X112780000Y-85620000D03*
G04 #@! TD*
D20*
G04 #@! TO.C,JP2*
X137600000Y-85000000D03*
D21*
X137600000Y-86450000D03*
G04 #@! TD*
D35*
G04 #@! TO.C,C3*
X131500000Y-77257500D03*
X131500000Y-70842500D03*
G04 #@! TD*
M02*
